<svg id="svg" version="1.1" xmlns="http://www.w3.org/2000/svg" xmlns:xlink="http://www.w3.org/1999/xlink" width="400" height="440.2597402597402" viewBox="0, 0, 400,440.2597402597402"><g id="svgg"><path id="path0" d="M123.843 40.384 C 113.427 40.566,111.435 40.694,111.157 41.200 C 110.976 41.530,110.450 42.700,109.989 43.800 C 109.529 44.900,108.902 46.340,108.597 47.000 C 107.810 48.703,106.307 52.107,104.800 55.600 C 104.088 57.250,103.094 59.500,102.590 60.600 C 102.086 61.700,101.286 63.500,100.813 64.600 C 100.339 65.700,99.704 67.140,99.401 67.800 C 99.098 68.460,98.494 69.810,98.059 70.800 C 97.624 71.790,96.703 73.860,96.013 75.400 C 95.322 76.940,94.597 78.560,94.400 79.000 C 94.204 79.440,93.404 81.199,92.622 82.909 C 91.840 84.619,91.200 86.100,91.200 86.200 C 91.200 86.300,90.557 87.781,89.771 89.491 C 88.985 91.201,88.072 93.230,87.742 94.000 C 87.411 94.770,86.892 95.940,86.588 96.600 C 84.911 100.236,83.200 104.092,83.200 104.235 C 83.200 104.380,81.746 107.662,80.203 111.000 C 79.898 111.660,79.261 113.100,78.787 114.200 C 77.999 116.030,77.216 117.776,75.198 122.200 C 74.797 123.080,74.082 124.700,73.610 125.800 C 73.138 126.900,72.502 128.340,72.197 129.000 C 71.892 129.660,71.167 131.280,70.585 132.600 C 70.004 133.920,69.200 135.720,68.798 136.600 C 68.397 137.480,67.678 139.100,67.200 140.200 C 66.722 141.300,65.971 143.010,65.530 144.000 C 65.089 144.990,64.574 146.160,64.385 146.600 C 64.197 147.040,63.478 148.660,62.787 150.200 C 62.097 151.740,61.176 153.810,60.741 154.800 C 60.306 155.790,59.702 157.140,59.399 157.800 C 59.096 158.460,58.461 159.900,57.987 161.000 C 57.514 162.100,56.676 163.990,56.127 165.200 C 55.578 166.410,54.770 168.210,54.332 169.200 C 53.282 171.575,52.059 174.314,51.386 175.800 C 51.087 176.460,50.367 178.080,49.785 179.400 C 49.204 180.720,48.400 182.520,47.998 183.400 C 47.597 184.280,46.882 185.900,46.410 187.000 C 45.330 189.516,44.716 190.900,43.607 193.317 C 43.123 194.371,42.837 195.520,42.972 195.871 C 43.241 196.572,193.716 196.295,198.706 195.585 C 203.824 194.856,210.964 192.243,215.374 189.484 C 230.246 180.181,235.976 170.712,235.996 155.400 C 236.003 149.705,234.450 142.095,232.526 138.400 C 232.239 137.850,232.004 137.268,232.002 137.106 C 231.998 136.606,229.519 132.693,228.023 130.824 C 223.840 125.601,219.312 122.375,211.486 119.044 C 210.654 118.690,209.811 118.400,209.612 118.400 C 206.405 118.400,207.055 116.848,210.453 116.392 C 225.313 114.398,235.488 109.622,243.662 100.804 C 247.995 96.130,248.147 95.912,251.320 89.800 C 252.741 87.063,253.382 85.458,254.675 81.400 C 255.629 78.407,255.856 67.885,255.028 65.038 C 254.683 63.849,254.400 62.580,254.400 62.216 C 254.400 61.588,253.543 59.462,252.056 56.400 C 250.881 53.980,249.657 52.300,247.000 49.456 C 246.041 48.430,242.964 45.983,241.820 45.337 C 239.002 43.747,234.248 41.602,233.522 41.594 C 233.235 41.591,232.190 41.276,231.200 40.894 C 229.318 40.168,156.125 39.821,123.843 40.384 M189.287 81.109 C 193.773 83.093,191.287 88.357,185.728 88.644 C 173.316 89.284,149.567 89.085,149.166 88.337 C 148.487 87.068,151.348 81.140,152.800 80.805 C 156.023 80.062,187.513 80.324,189.287 81.109 M303.870 124.361 C 297.415 126.769,294.867 132.890,297.228 140.317 C 297.980 142.680,297.235 143.602,293.000 145.549 C 289.400 147.204,284.200 153.301,283.016 157.257 C 278.716 171.611,296.176 180.410,310.090 170.900 C 312.551 169.217,313.819 169.243,315.579 171.011 C 316.337 171.773,317.282 172.499,317.679 172.625 C 318.075 172.751,318.400 173.007,318.400 173.195 C 318.400 173.383,318.938 173.655,319.595 173.799 C 320.253 173.943,320.894 174.228,321.019 174.431 C 321.309 174.900,326.680 174.918,326.968 174.452 C 327.086 174.260,327.768 173.986,328.482 173.844 C 330.822 173.376,333.200 172.001,333.200 171.115 C 333.200 170.455,333.092 170.392,332.628 170.777 C 329.960 172.991,323.881 170.833,319.300 166.047 C 317.716 164.391,317.696 164.050,319.108 162.789 C 321.078 161.031,324.098 156.854,325.834 153.486 L 327.528 150.200 330.852 150.082 C 333.283 149.996,334.376 149.784,334.921 149.291 C 335.776 148.517,336.924 145.991,336.579 145.645 C 335.993 145.060,319.805 145.662,319.100 146.295 C 317.996 147.287,318.201 148.664,319.500 148.984 C 321.146 149.389,322.400 151.053,322.400 152.833 C 322.400 155.175,318.538 162.129,317.000 162.555 C 315.185 163.059,310.517 155.869,305.496 144.835 C 304.663 143.006,306.058 141.200,308.304 141.200 C 309.283 141.200,314.253 138.215,315.951 136.607 C 323.192 129.752,314.107 120.543,303.870 124.361 M310.281 125.278 C 314.701 127.164,314.619 133.767,310.130 137.600 C 306.916 140.344,304.620 141.240,303.982 140.000 C 300.067 132.392,304.218 122.690,310.281 125.278 M178.055 137.896 C 179.982 139.035,180.094 141.886,178.298 144.115 C 176.504 146.342,175.263 146.442,148.299 146.525 C 120.129 146.612,122.309 146.963,124.342 142.661 C 125.034 141.196,125.600 139.810,125.600 139.581 C 125.600 139.351,126.042 138.722,126.582 138.182 L 127.564 137.200 152.220 137.200 C 174.930 137.200,176.970 137.255,178.055 137.896 M299.229 146.249 C 299.596 146.906,300.035 147.884,300.205 148.422 C 300.479 149.290,302.131 152.773,303.896 156.200 C 304.973 158.292,308.102 162.925,309.882 165.064 C 312.078 167.702,312.044 168.127,309.500 169.750 C 300.694 175.369,291.193 171.500,288.817 161.327 C 287.545 155.879,292.135 146.989,297.200 145.091 C 298.130 144.743,298.508 144.958,299.229 146.249 M210.600 226.794 C 192.560 226.907,177.620 227.120,177.400 227.267 C 176.922 227.586,175.765 229.933,173.590 235.000 C 173.118 236.100,172.403 237.720,172.002 238.600 C 171.600 239.480,170.793 241.280,170.208 242.600 C 169.048 245.216,167.838 247.921,166.986 249.800 C 166.687 250.460,165.967 252.080,165.385 253.400 C 164.804 254.720,164.000 256.520,163.598 257.400 C 163.197 258.280,162.482 259.900,162.010 261.000 C 161.538 262.100,160.892 263.585,160.576 264.300 C 160.259 265.015,159.741 266.185,159.424 266.900 C 159.107 267.615,158.207 269.599,157.424 271.309 C 156.641 273.019,156.000 274.500,156.000 274.600 C 156.000 274.700,155.360 276.181,154.578 277.891 C 153.796 279.601,152.996 281.360,152.800 281.800 C 152.603 282.240,151.878 283.860,151.187 285.400 C 150.497 286.940,149.573 289.010,149.134 290.000 C 148.147 292.226,146.904 295.013,146.190 296.600 C 145.893 297.260,145.294 298.610,144.859 299.600 C 144.424 300.590,143.503 302.660,142.813 304.200 C 142.122 305.740,141.403 307.360,141.215 307.800 C 139.187 312.533,139.172 312.566,136.631 318.136 C 135.844 319.860,135.200 321.345,135.200 321.435 C 135.200 321.524,134.647 322.813,133.972 324.299 C 132.775 326.931,131.679 329.365,130.596 331.800 C 129.979 333.185,127.794 338.038,126.994 339.800 C 126.694 340.460,126.062 341.900,125.590 343.000 C 125.118 344.100,124.402 345.720,123.999 346.600 C 123.033 348.713,120.847 353.591,120.415 354.600 C 119.022 357.850,118.275 359.564,117.799 360.600 C 117.496 361.260,116.861 362.700,116.387 363.800 C 115.914 364.900,115.076 366.790,114.527 368.000 C 113.978 369.210,113.170 371.010,112.732 372.000 C 111.987 373.685,111.203 375.445,109.704 378.800 C 109.360 379.570,108.825 380.695,108.516 381.301 C 108.207 381.906,108.053 382.563,108.175 382.760 C 108.458 383.217,261.065 382.852,263.800 382.388 C 272.267 380.951,279.008 377.958,286.481 372.318 C 293.963 366.672,298.373 360.722,299.986 354.100 C 300.214 353.165,300.599 351.635,300.842 350.700 C 301.403 348.543,301.425 336.385,300.872 334.000 C 300.119 330.754,299.537 328.613,299.187 327.800 C 298.998 327.360,298.435 326.010,297.936 324.800 C 295.848 319.731,289.540 312.424,284.957 309.765 C 283.881 309.141,282.940 308.488,282.867 308.315 C 282.793 308.142,282.543 308.000,282.310 308.000 C 282.078 308.000,281.148 307.656,280.244 307.237 C 276.833 305.652,275.657 305.200,274.940 305.194 C 272.268 305.172,273.045 303.443,275.903 303.049 C 284.975 301.796,290.021 300.354,296.500 297.163 C 305.274 292.840,313.141 284.642,317.383 275.400 C 317.787 274.520,318.265 273.497,318.446 273.127 C 322.228 265.360,322.148 253.207,318.257 244.400 C 314.167 235.141,304.786 228.751,292.493 226.850 C 289.492 226.386,277.104 226.377,210.600 226.794 M255.900 268.327 C 257.808 269.688,257.710 271.395,255.604 273.502 C 253.457 275.649,253.985 275.600,233.137 275.600 C 213.211 275.600,213.649 275.651,214.725 273.473 C 214.963 272.993,215.555 271.610,216.042 270.400 C 217.435 266.934,215.935 267.163,236.392 267.289 L 254.600 267.400 255.900 268.327 M243.311 324.366 C 245.600 325.236,245.599 329.256,243.310 331.379 C 241.674 332.896,239.760 333.000,213.600 333.000 L 189.400 333.000 189.273 331.897 C 189.121 330.577,191.539 325.011,192.570 324.306 C 193.203 323.874,242.169 323.932,243.311 324.366 " stroke="none" fill="#fafafa" fill-rule="evenodd"></path><path id="path1" d="M35.855 1.400 C 35.698 1.811,35.055 2.000,33.813 2.000 C 32.468 2.000,32.000 2.155,32.000 2.600 C 32.000 3.032,31.559 3.200,30.429 3.200 C 29.564 3.200,28.587 3.470,28.257 3.800 C 27.927 4.130,27.286 4.400,26.832 4.400 C 26.378 4.400,25.782 4.760,25.507 5.200 C 25.232 5.640,24.590 6.000,24.080 6.000 C 23.570 6.000,23.261 6.175,23.393 6.388 C 23.525 6.602,23.175 6.891,22.616 7.032 C 22.057 7.172,21.600 7.537,21.600 7.843 C 21.600 8.150,21.240 8.400,20.800 8.400 C 20.360 8.400,20.000 8.656,20.000 8.968 C 20.000 9.281,19.460 9.655,18.800 9.800 C 18.140 9.945,17.600 10.245,17.600 10.466 C 17.600 10.687,16.970 11.426,16.200 12.108 C 15.430 12.789,14.800 13.674,14.800 14.074 C 14.800 14.473,14.530 14.800,14.200 14.800 C 13.867 14.800,13.600 15.156,13.600 15.600 C 13.600 16.044,13.333 16.400,13.000 16.400 C 12.670 16.400,12.400 16.670,12.400 17.000 C 12.400 17.330,12.130 17.600,11.800 17.600 C 11.400 17.600,11.200 18.000,11.200 18.800 C 11.200 19.600,11.000 20.000,10.600 20.000 C 10.270 20.000,10.000 20.173,10.000 20.384 C 10.000 20.596,9.648 21.097,9.218 21.497 C 8.774 21.911,8.394 22.855,8.338 23.686 C 8.284 24.489,8.051 25.114,7.820 25.073 C 7.589 25.033,7.310 25.810,7.200 26.800 C 7.090 27.790,6.820 28.555,6.600 28.500 C 6.334 28.433,6.200 91.833,6.200 218.100 C 6.200 369.647,6.301 407.780,6.700 407.700 C 7.047 407.631,7.215 408.274,7.250 409.800 C 7.318 412.797,7.365 413.015,7.918 412.900 C 8.230 412.835,8.400 413.364,8.400 414.400 C 8.400 415.556,8.567 416.000,9.000 416.000 C 9.400 416.000,9.600 416.400,9.600 417.200 C 9.600 418.133,9.778 418.400,10.400 418.400 C 11.024 418.400,11.200 418.667,11.200 419.613 C 11.200 420.321,11.449 420.921,11.800 421.055 C 12.130 421.182,12.400 421.722,12.400 422.255 C 12.400 422.789,12.670 423.329,13.000 423.455 C 13.330 423.582,13.600 423.866,13.600 424.086 C 13.600 424.668,15.312 426.385,15.900 426.393 C 16.175 426.397,16.400 426.670,16.400 427.000 C 16.400 427.330,16.670 427.600,17.000 427.600 C 17.330 427.600,17.600 427.870,17.600 428.200 C 17.600 428.530,17.870 428.800,18.200 428.800 C 18.533 428.800,18.800 429.156,18.800 429.600 C 18.800 430.040,19.051 430.400,19.357 430.400 C 19.664 430.400,20.018 430.670,20.145 431.000 C 20.271 431.330,20.651 431.600,20.987 431.600 C 21.324 431.600,21.600 431.870,21.600 432.200 C 21.600 432.530,21.851 432.800,22.157 432.800 C 22.464 432.800,22.813 433.057,22.934 433.371 C 23.054 433.685,23.658 434.000,24.276 434.071 C 24.913 434.144,25.357 434.417,25.300 434.700 C 25.245 434.975,25.380 435.223,25.600 435.250 C 25.820 435.277,26.180 435.345,26.400 435.400 C 26.620 435.455,27.070 435.523,27.400 435.550 C 27.730 435.577,28.000 435.870,28.000 436.200 C 28.000 436.596,28.396 436.800,29.167 436.800 C 29.808 436.800,30.404 437.013,30.491 437.273 C 30.578 437.533,31.538 437.854,32.624 437.985 C 33.874 438.136,34.563 438.403,34.500 438.712 C 34.358 439.403,363.413 439.427,363.839 438.736 C 364.009 438.462,363.948 438.385,363.689 438.545 C 363.451 438.692,363.161 438.661,363.046 438.474 C 362.931 438.288,363.863 438.098,365.118 438.051 C 366.488 438.001,367.567 437.749,367.816 437.422 C 368.045 437.121,368.945 436.822,369.816 436.757 C 370.788 436.684,371.760 436.293,372.330 435.743 C 372.883 435.212,373.520 434.948,373.900 435.094 C 374.375 435.276,374.473 435.167,374.282 434.669 C 374.085 434.155,374.254 434.000,375.013 434.000 C 375.624 434.000,376.000 433.771,376.000 433.400 C 376.000 433.027,376.378 432.800,377.000 432.800 C 377.550 432.800,378.000 432.616,378.000 432.390 C 378.000 432.165,378.450 431.809,379.000 431.600 C 379.550 431.391,380.000 431.035,380.000 430.810 C 380.000 430.584,380.270 430.400,380.600 430.400 C 380.933 430.400,381.200 430.044,381.200 429.600 C 381.200 429.156,381.467 428.800,381.800 428.800 C 382.130 428.800,382.400 428.530,382.400 428.200 C 382.400 427.870,382.670 427.600,383.000 427.600 C 383.330 427.600,383.600 427.330,383.600 427.000 C 383.600 426.667,383.956 426.400,384.400 426.400 C 384.844 426.400,385.200 426.133,385.200 425.800 C 385.200 425.470,385.470 425.200,385.800 425.200 C 386.133 425.200,386.400 424.844,386.400 424.400 C 386.400 423.960,386.650 423.600,386.957 423.600 C 387.263 423.600,387.626 423.150,387.764 422.600 C 387.902 422.050,388.192 421.600,388.408 421.600 C 388.623 421.600,388.800 421.261,388.800 420.847 C 388.800 420.432,389.118 420.010,389.508 419.908 C 389.944 419.794,390.252 419.283,390.310 418.576 C 390.362 417.945,390.674 417.278,391.003 417.095 C 391.331 416.911,391.600 416.229,391.600 415.580 C 391.600 414.871,391.792 414.440,392.082 414.500 C 392.600 414.608,392.673 414.357,392.750 412.200 C 392.784 411.244,392.990 410.800,393.400 410.800 C 394.314 410.800,394.314 33.695,393.400 33.345 C 392.954 33.174,392.800 32.464,392.800 30.586 C 392.800 28.871,392.607 27.864,392.200 27.457 C 391.870 27.127,391.600 26.214,391.600 25.429 C 391.600 24.425,391.421 24.000,391.000 24.000 C 390.600 24.000,390.400 23.600,390.400 22.800 C 390.400 21.867,390.222 21.600,389.600 21.600 C 388.976 21.600,388.800 21.333,388.800 20.387 C 388.800 19.679,388.551 19.079,388.200 18.945 C 387.870 18.818,387.600 18.278,387.600 17.745 C 387.600 17.211,387.330 16.671,387.000 16.545 C 386.670 16.418,386.400 16.134,386.400 15.914 C 386.400 15.332,384.688 13.615,384.100 13.607 C 383.825 13.603,383.600 13.330,383.600 13.000 C 383.600 12.670,383.330 12.400,383.000 12.400 C 382.670 12.400,382.400 12.130,382.400 11.800 C 382.400 11.470,382.130 11.200,381.800 11.200 C 381.467 11.200,381.200 10.844,381.200 10.400 C 381.200 9.960,380.949 9.600,380.643 9.600 C 380.336 9.600,379.982 9.330,379.855 9.000 C 379.729 8.670,379.349 8.400,379.013 8.400 C 378.676 8.400,378.400 8.130,378.400 7.800 C 378.400 7.470,378.149 7.200,377.843 7.200 C 377.536 7.200,377.182 6.930,377.055 6.600 C 376.929 6.270,376.390 6.000,375.859 6.000 C 375.230 6.000,374.820 5.721,374.684 5.200 C 374.532 4.617,374.138 4.400,373.237 4.400 C 372.404 4.400,372.000 4.204,372.000 3.800 C 372.000 3.381,371.578 3.200,370.600 3.200 C 369.693 3.200,369.235 3.024,369.300 2.700 C 369.366 2.369,368.758 2.159,367.500 2.078 C 366.166 1.992,365.600 1.784,365.600 1.378 C 365.600 0.483,36.199 0.505,35.855 1.400 M347.600 18.547 C 357.729 21.882,363.684 25.774,368.911 32.474 C 371.861 36.256,375.587 43.159,375.606 44.878 C 375.609 45.165,375.898 46.210,376.249 47.200 C 377.394 50.436,377.547 68.026,377.819 228.000 L 378.085 384.200 377.264 387.400 C 373.769 401.020,365.093 410.776,352.374 415.388 C 345.763 417.785,355.250 417.607,210.400 418.045 C 62.518 418.492,59.549 418.476,55.400 417.239 C 41.745 413.168,32.007 403.848,27.982 391.000 C 25.983 384.618,26.080 392.341,25.779 216.200 L 25.498 51.800 26.401 48.200 C 29.692 35.080,39.441 24.505,52.079 20.345 C 58.757 18.147,51.099 18.296,172.000 18.008 C 334.287 17.621,344.886 17.653,347.600 18.547 M179.300 39.900 C 187.825 39.960,201.775 39.960,210.300 39.900 C 218.825 39.840,211.850 39.790,194.800 39.790 C 177.750 39.790,170.775 39.840,179.300 39.900 M117.900 40.299 C 121.255 40.366,126.745 40.366,130.100 40.299 C 133.455 40.232,130.710 40.178,124.000 40.178 C 117.290 40.178,114.545 40.232,117.900 40.299 M242.800 45.733 C 242.800 45.843,243.520 46.503,244.400 47.200 C 245.280 47.897,246.000 48.377,246.000 48.267 C 246.000 48.157,245.280 47.497,244.400 46.800 C 243.520 46.103,242.800 45.623,242.800 45.733 M247.600 49.812 C 247.600 49.962,248.050 50.619,248.600 51.273 C 249.150 51.927,249.600 52.339,249.600 52.188 C 249.600 52.038,249.150 51.381,248.600 50.727 C 248.050 50.073,247.600 49.661,247.600 49.812 M105.588 52.822 C 105.346 53.274,105.207 53.822,105.280 54.039 C 105.352 54.257,105.618 53.887,105.871 53.217 C 106.397 51.825,106.239 51.605,105.588 52.822 M251.601 55.301 C 251.601 55.467,251.960 56.275,252.400 57.096 C 252.840 57.916,253.200 58.370,253.200 58.104 C 253.200 57.837,252.841 57.030,252.401 56.310 C 251.962 55.589,251.602 55.136,251.601 55.301 M254.433 62.400 C 254.421 62.730,254.667 63.810,254.979 64.800 C 255.291 65.790,255.556 66.330,255.567 66.000 C 255.579 65.670,255.333 64.590,255.021 63.600 C 254.709 62.610,254.444 62.070,254.433 62.400 M255.754 72.800 C 255.754 75.550,255.818 76.675,255.896 75.300 C 255.974 73.925,255.974 71.675,255.896 70.300 C 255.818 68.925,255.754 70.050,255.754 72.800 M153.000 80.739 C 150.077 81.246,153.018 81.359,162.119 81.089 C 173.695 80.745,188.155 80.869,189.400 81.321 C 189.840 81.481,189.660 81.335,189.000 80.996 C 187.896 80.430,156.091 80.202,153.000 80.739 M253.665 84.217 C 252.995 85.688,253.123 86.002,253.847 84.665 C 254.186 84.040,254.388 83.454,254.296 83.363 C 254.205 83.271,253.921 83.656,253.665 84.217 M189.475 86.900 C 188.636 87.725,188.105 88.400,188.296 88.400 C 188.704 88.400,191.426 85.662,191.173 85.506 C 191.078 85.448,190.314 86.075,189.475 86.900 M89.988 88.022 C 89.746 88.474,89.607 89.022,89.680 89.239 C 89.752 89.457,90.018 89.087,90.271 88.417 C 90.797 87.025,90.639 86.805,89.988 88.022 M149.554 88.915 C 149.728 89.089,151.655 89.178,153.835 89.113 L 157.800 88.995 153.518 88.798 C 151.163 88.689,149.379 88.742,149.554 88.915 M250.228 91.861 C 249.656 92.884,249.252 93.785,249.329 93.863 C 249.407 93.940,249.961 93.103,250.560 92.002 C 251.160 90.901,251.564 90.000,251.459 90.000 C 251.354 90.000,250.800 90.837,250.228 91.861 M241.804 102.562 C 239.606 104.783,238.526 106.034,239.404 105.342 C 241.110 103.998,246.000 99.025,246.000 98.635 C 246.000 98.306,246.209 98.111,241.804 102.562 M233.710 108.912 C 232.560 109.594,231.691 110.224,231.778 110.311 C 231.977 110.511,235.520 108.454,235.823 107.962 C 236.120 107.482,236.118 107.483,233.710 108.912 M80.100 110.500 C 79.670 111.675,79.680 111.726,80.212 111.024 C 80.721 110.352,81.021 109.200,80.688 109.200 C 80.626 109.200,80.361 109.785,80.100 110.500 M224.000 113.400 C 222.694 114.147,223.151 114.155,224.854 113.416 C 225.594 113.094,225.930 112.831,225.600 112.830 C 225.270 112.829,224.550 113.086,224.000 113.400 M78.485 114.013 C 78.218 114.440,78.001 115.017,78.002 115.295 C 78.004 115.573,78.277 115.278,78.610 114.640 C 79.303 113.311,79.211 112.850,78.485 114.013 M213.200 116.000 C 212.408 116.254,212.367 116.320,213.000 116.320 C 213.440 116.320,214.250 116.176,214.800 116.000 C 215.592 115.746,215.633 115.680,215.000 115.680 C 214.560 115.680,213.750 115.824,213.200 116.000 M208.074 116.822 C 207.200 117.172,207.181 118.000,208.047 118.000 C 208.267 118.000,208.339 117.825,208.207 117.612 C 208.075 117.398,208.470 117.112,209.084 116.977 C 210.857 116.585,211.071 116.464,210.000 116.457 C 209.450 116.454,208.583 116.618,208.074 116.822 M211.200 119.000 C 211.750 119.314,212.380 119.572,212.600 119.572 C 212.820 119.572,212.550 119.314,212.000 119.000 C 211.450 118.686,210.820 118.428,210.600 118.428 C 210.380 118.428,210.650 118.686,211.200 119.000 M216.611 121.328 C 218.382 122.514,220.400 123.653,220.400 123.467 C 220.400 123.223,216.498 120.800,216.105 120.800 C 215.949 120.800,216.177 121.038,216.611 121.328 M307.500 123.489 C 308.215 123.578,309.385 123.578,310.100 123.489 C 310.815 123.401,310.230 123.328,308.800 123.328 C 307.370 123.328,306.785 123.401,307.500 123.489 M220.800 123.733 C 220.800 123.843,221.520 124.503,222.400 125.200 C 223.280 125.897,224.000 126.377,224.000 126.267 C 224.000 126.157,223.280 125.497,222.400 124.800 C 221.520 124.103,220.800 123.623,220.800 123.733 M303.400 124.214 C 301.785 124.954,302.751 124.955,304.454 124.216 C 305.194 123.894,305.530 123.639,305.200 123.648 C 304.870 123.657,304.060 123.912,303.400 124.214 M312.800 124.200 C 313.350 124.514,313.980 124.772,314.200 124.772 C 314.420 124.772,314.150 124.514,313.600 124.200 C 313.050 123.886,312.420 123.628,312.200 123.628 C 311.980 123.628,312.250 123.886,312.800 124.200 M299.691 126.700 L 297.726 128.600 299.563 127.038 C 302.138 124.849,302.189 124.800,301.908 124.800 C 301.769 124.800,300.772 125.655,299.691 126.700 M307.338 125.106 C 307.084 125.268,307.652 125.400,308.600 125.400 C 309.548 125.400,310.116 125.268,309.862 125.106 C 309.608 124.944,309.040 124.812,308.600 124.812 C 308.160 124.812,307.592 124.944,307.338 125.106 M304.721 126.700 C 302.374 129.208,301.549 134.856,303.156 137.408 C 303.617 138.140,303.634 138.124,303.383 137.200 C 302.162 132.717,302.996 128.363,305.443 126.438 C 306.029 125.977,306.337 125.600,306.129 125.600 C 305.920 125.600,305.287 126.095,304.721 126.700 M224.800 127.317 C 225.130 127.603,225.647 128.098,225.949 128.418 C 226.419 128.916,226.435 128.877,226.060 128.147 C 225.819 127.678,225.302 127.183,224.911 127.046 C 224.292 126.830,224.278 126.865,224.800 127.317 M313.309 130.400 C 313.309 131.390,313.387 131.795,313.482 131.300 C 313.578 130.805,313.578 129.995,313.482 129.500 C 313.387 129.005,313.309 129.410,313.309 130.400 M228.000 130.800 C 228.697 131.680,229.357 132.400,229.467 132.400 C 229.577 132.400,229.097 131.680,228.400 130.800 C 227.703 129.920,227.043 129.200,226.933 129.200 C 226.823 129.200,227.303 129.920,228.000 130.800 M318.710 131.200 C 318.557 131.970,318.324 133.050,318.194 133.600 C 318.039 134.253,318.178 134.118,318.596 133.211 C 318.948 132.447,319.181 131.367,319.113 130.811 C 319.006 129.932,318.953 129.983,318.710 131.200 M296.137 134.600 C 296.139 136.360,296.209 137.030,296.293 136.089 C 296.378 135.149,296.377 133.709,296.291 132.889 C 296.205 132.070,296.136 132.840,296.137 134.600 M312.444 134.046 C 312.139 134.734,311.334 135.951,310.654 136.749 C 309.827 137.720,309.730 137.936,310.361 137.400 C 311.504 136.430,313.295 133.685,313.123 133.168 C 313.054 132.962,312.749 133.357,312.444 134.046 M69.188 134.822 C 68.946 135.274,68.807 135.822,68.880 136.039 C 68.952 136.257,69.218 135.887,69.471 135.217 C 69.997 133.825,69.839 133.605,69.188 134.822 M316.073 136.450 C 315.123 137.346,314.414 138.148,314.498 138.231 C 314.582 138.315,315.441 137.577,316.408 136.592 C 318.601 134.357,318.387 134.266,316.073 136.450 M139.900 137.500 C 146.775 137.561,158.025 137.561,164.900 137.500 C 171.775 137.438,166.150 137.388,152.400 137.388 C 138.650 137.388,133.025 137.438,139.900 137.500 M126.155 138.612 C 125.790 139.169,125.564 139.698,125.653 139.787 C 125.742 139.876,126.118 139.420,126.489 138.774 C 127.314 137.336,127.069 137.217,126.155 138.612 M178.300 138.473 C 178.829 139.049,179.222 140.017,179.254 140.826 C 179.294 141.835,179.356 141.950,179.488 141.259 C 179.759 139.833,179.331 138.661,178.315 138.047 L 177.400 137.495 178.300 138.473 M233.616 141.054 C 233.607 141.304,233.863 142.114,234.184 142.854 C 234.506 143.594,234.776 143.996,234.784 143.746 C 234.793 143.496,234.537 142.686,234.216 141.946 C 233.894 141.206,233.624 140.804,233.616 141.054 M305.675 142.416 C 304.402 143.602,304.601 143.915,305.900 142.770 C 306.505 142.236,307.075 141.755,307.167 141.700 C 307.258 141.645,307.157 141.600,306.942 141.600 C 306.727 141.600,306.157 141.967,305.675 142.416 M123.586 144.227 C 122.264 146.696,121.323 146.610,148.446 146.508 C 163.763 146.451,173.451 146.263,174.200 146.010 L 175.400 145.603 174.200 145.791 C 173.540 145.895,161.981 146.104,148.512 146.255 C 121.698 146.556,122.520 146.621,123.965 144.308 C 124.235 143.876,124.383 143.450,124.295 143.362 C 124.207 143.273,123.888 143.663,123.586 144.227 M177.000 144.827 C 176.340 145.250,176.005 145.597,176.256 145.598 C 176.506 145.599,177.136 145.246,177.656 144.813 C 178.845 143.823,178.559 143.829,177.000 144.827 M318.962 146.100 C 318.203 146.997,318.203 146.998,319.020 146.310 C 319.712 145.728,320.902 145.601,326.620 145.500 L 333.400 145.379 326.562 145.290 C 319.909 145.202,319.703 145.224,318.962 146.100 M336.129 145.481 C 336.616 145.607,336.775 145.891,336.606 146.335 C 336.413 146.842,336.464 146.889,336.821 146.535 C 337.412 145.949,336.970 145.185,336.076 145.246 C 335.496 145.286,335.504 145.320,336.129 145.481 M294.200 147.128 C 293.760 147.514,293.045 148.273,292.610 148.815 C 292.176 149.357,292.581 149.088,293.510 148.219 C 295.032 146.795,295.404 146.373,295.100 146.413 C 295.045 146.421,294.640 146.742,294.200 147.128 M235.256 147.400 C 235.256 147.840,235.411 148.560,235.600 149.000 L 235.944 149.800 235.944 149.000 C 235.944 148.560,235.789 147.840,235.600 147.400 L 235.256 146.600 235.256 147.400 M288.507 148.619 C 287.363 149.620,286.041 151.015,285.569 151.719 C 284.844 152.801,284.921 152.760,286.065 151.459 C 286.810 150.612,288.225 149.222,289.210 148.371 C 290.194 147.520,290.907 146.819,290.793 146.812 C 290.679 146.805,289.650 147.619,288.507 148.619 M321.520 150.880 C 321.784 151.144,322.027 152.089,322.060 152.980 C 322.107 154.263,322.155 154.361,322.291 153.452 C 322.513 151.964,322.114 150.400,321.512 150.400 C 321.153 150.400,321.155 150.515,321.520 150.880 M236.151 155.600 C 236.151 158.130,236.216 159.165,236.296 157.900 C 236.375 156.635,236.375 154.565,236.296 153.300 C 236.216 152.035,236.151 153.070,236.151 155.600 M290.057 152.457 C 289.775 152.909,289.632 153.366,289.740 153.473 C 289.847 153.581,290.144 153.278,290.400 152.800 C 291.005 151.670,290.724 151.390,290.057 152.457 M308.810 151.800 C 308.819 152.261,311.577 156.743,311.591 156.320 C 311.596 156.166,310.970 154.996,310.201 153.720 C 309.432 152.444,308.806 151.580,308.810 151.800 M325.178 154.698 C 324.274 156.501,324.287 156.679,325.220 155.283 C 325.704 154.559,326.017 153.883,325.915 153.782 C 325.813 153.680,325.481 154.092,325.178 154.698 M288.613 158.100 C 288.483 159.035,288.546 160.340,288.754 161.000 C 289.070 162.005,289.137 161.729,289.166 159.300 C 289.204 156.051,288.969 155.540,288.613 158.100 M321.600 160.000 C 320.903 160.880,320.423 161.600,320.533 161.600 C 320.643 161.600,321.303 160.880,322.000 160.000 C 322.697 159.120,323.177 158.400,323.067 158.400 C 322.957 158.400,322.297 159.120,321.600 160.000 M282.093 160.000 C 282.093 160.770,282.175 161.085,282.276 160.700 C 282.376 160.315,282.376 159.685,282.276 159.300 C 282.175 158.915,282.093 159.230,282.093 160.000 M306.319 160.797 C 306.693 161.456,307.147 161.996,307.327 161.997 C 307.507 161.999,307.270 161.460,306.800 160.800 C 305.702 159.258,305.442 159.257,306.319 160.797 M57.685 160.813 C 57.418 161.240,57.201 161.817,57.202 162.095 C 57.204 162.373,57.477 162.078,57.810 161.440 C 58.503 160.111,58.411 159.650,57.685 160.813 M235.422 162.622 C 235.272 163.425,235.238 164.172,235.348 164.282 C 235.458 164.392,235.672 163.825,235.822 163.022 C 235.973 162.219,236.006 161.473,235.896 161.363 C 235.786 161.253,235.573 161.819,235.422 162.622 M282.064 163.000 C 282.049 163.660,282.296 164.740,282.614 165.400 C 283.080 166.368,283.141 166.407,282.927 165.600 C 282.781 165.050,282.533 163.970,282.377 163.200 C 282.099 161.836,282.091 161.831,282.064 163.000 M318.267 163.467 C 317.812 163.921,317.985 164.560,318.842 165.600 L 319.667 166.600 318.937 165.283 C 318.300 164.132,318.283 163.919,318.804 163.589 C 319.132 163.382,319.205 163.209,318.967 163.206 C 318.728 163.203,318.413 163.320,318.267 163.467 M310.300 166.026 C 311.474 167.364,311.435 167.967,310.100 169.118 L 309.000 170.066 310.300 169.206 C 311.889 168.154,311.945 167.244,310.500 165.970 L 309.400 165.000 310.300 166.026 M320.230 166.900 C 320.342 167.175,320.921 167.744,321.517 168.165 C 322.598 168.929,322.598 168.928,321.425 167.665 C 320.142 166.284,319.919 166.141,320.230 166.900 M234.315 167.810 C 234.192 168.245,233.969 168.960,233.820 169.400 C 233.671 169.840,233.842 169.694,234.200 169.076 C 234.558 168.458,234.781 167.742,234.695 167.486 C 234.610 167.230,234.439 167.376,234.315 167.810 M310.400 170.659 C 309.630 171.203,308.820 171.841,308.600 172.076 C 308.136 172.572,310.153 171.371,311.554 170.317 C 312.998 169.231,312.002 169.526,310.400 170.659 M314.284 170.303 C 315.855 171.845,316.918 172.490,315.600 171.101 C 314.830 170.289,314.058 169.620,313.884 169.613 C 313.711 169.606,313.891 169.916,314.284 170.303 M307.376 170.587 C 306.949 170.910,306.780 171.175,307.000 171.175 C 307.220 171.175,307.749 170.910,308.176 170.587 C 308.604 170.264,308.773 170.000,308.553 170.000 C 308.333 170.000,307.804 170.264,307.376 170.587 M286.435 171.313 C 287.005 171.863,288.085 172.625,288.835 173.007 C 290.607 173.909,290.304 173.611,287.600 171.792 C 286.111 170.790,285.734 170.635,286.435 171.313 M328.105 171.487 C 328.714 171.579,329.614 171.577,330.105 171.482 C 330.597 171.387,330.100 171.311,329.000 171.314 C 327.900 171.317,327.497 171.395,328.105 171.487 M298.715 172.072 C 299.092 172.221,300.300 172.344,301.400 172.344 C 302.500 172.344,303.708 172.221,304.085 172.072 C 304.462 171.922,303.254 171.800,301.400 171.800 C 299.546 171.800,298.338 171.922,298.715 172.072 M230.828 175.517 C 230.091 176.773,227.669 179.594,225.444 181.788 C 223.220 183.981,222.300 185.036,223.400 184.132 C 227.244 180.972,232.997 174.064,232.335 173.402 C 232.242 173.309,231.564 174.261,230.828 175.517 M291.600 174.200 C 293.426 174.903,294.145 174.893,292.600 174.186 C 291.940 173.883,291.130 173.642,290.800 173.648 C 290.470 173.655,290.830 173.903,291.600 174.200 M302.000 174.400 C 301.467 174.745,301.467 174.788,302.000 174.788 C 302.330 174.788,302.870 174.613,303.200 174.400 C 303.733 174.055,303.733 174.012,303.200 174.012 C 302.870 174.012,302.330 174.187,302.000 174.400 M295.900 175.093 C 296.835 175.177,298.365 175.177,299.300 175.093 C 300.235 175.009,299.470 174.940,297.600 174.940 C 295.730 174.940,294.965 175.009,295.900 175.093 M322.905 175.087 C 323.514 175.179,324.414 175.177,324.905 175.082 C 325.397 174.987,324.900 174.911,323.800 174.914 C 322.700 174.917,322.297 174.995,322.905 175.087 M48.388 181.622 C 48.146 182.074,48.007 182.622,48.080 182.839 C 48.152 183.057,48.418 182.687,48.671 182.017 C 49.197 180.625,49.039 180.405,48.388 181.622 M219.000 187.055 C 216.469 188.835,215.779 189.519,217.600 188.444 C 219.019 187.605,221.567 185.620,221.200 185.639 C 221.090 185.644,220.100 186.282,219.000 187.055 M43.700 192.500 C 43.270 193.675,43.280 193.726,43.812 193.024 C 44.321 192.352,44.621 191.200,44.288 191.200 C 44.226 191.200,43.961 191.785,43.700 192.500 M209.200 192.600 C 208.650 192.914,208.380 193.172,208.600 193.172 C 208.820 193.172,209.450 192.914,210.000 192.600 C 210.550 192.286,210.820 192.028,210.600 192.028 C 210.380 192.028,209.750 192.286,209.200 192.600 M206.000 193.800 C 204.694 194.547,205.151 194.555,206.854 193.816 C 207.594 193.494,207.930 193.231,207.600 193.230 C 207.270 193.229,206.550 193.486,206.000 193.800 M42.412 195.900 L 42.400 196.800 79.100 196.742 C 99.285 196.710,133.710 196.557,155.600 196.401 C 180.693 196.222,167.298 196.189,119.350 196.313 C 45.142 196.504,43.290 196.491,42.863 195.754 C 42.451 195.046,42.424 195.054,42.412 195.900 M197.905 195.883 C 198.402 195.979,199.122 195.975,199.505 195.875 C 199.887 195.775,199.480 195.696,198.600 195.701 C 197.720 195.705,197.407 195.787,197.905 195.883 M255.929 226.300 C 262.379 226.362,272.819 226.362,279.129 226.300 C 285.438 226.238,280.160 226.187,267.400 226.187 C 254.640 226.187,249.478 226.238,255.929 226.300 M199.729 226.700 C 207.831 226.760,220.971 226.760,228.929 226.700 C 236.888 226.639,230.260 226.590,214.200 226.590 C 198.140 226.590,191.628 226.639,199.729 226.700 M176.792 227.410 C 176.514 227.745,176.402 228.135,176.543 228.276 C 176.684 228.418,176.800 228.318,176.800 228.054 C 176.800 227.790,177.205 227.411,177.700 227.212 C 178.309 226.968,178.390 226.843,177.949 226.825 C 177.591 226.811,177.070 227.074,176.792 227.410 M174.900 231.300 C 174.470 232.475,174.480 232.526,175.012 231.824 C 175.521 231.152,175.821 230.000,175.488 230.000 C 175.426 230.000,175.161 230.585,174.900 231.300 M310.007 233.630 C 310.011 233.724,311.316 235.060,312.907 236.600 C 314.498 238.140,315.350 238.862,314.800 238.205 C 313.237 236.337,309.991 233.238,310.007 233.630 M173.285 234.813 C 173.018 235.240,172.801 235.817,172.802 236.095 C 172.804 236.373,173.077 236.078,173.410 235.440 C 174.103 234.111,174.011 233.650,173.285 234.813 M320.881 253.800 C 320.875 254.460,321.010 255.900,321.182 257.000 C 321.487 258.959,321.494 258.967,321.524 257.400 C 321.540 256.520,321.405 255.080,321.223 254.200 C 320.940 252.830,320.890 252.773,320.881 253.800 M163.988 255.622 C 163.746 256.074,163.607 256.622,163.680 256.839 C 163.752 257.057,164.018 256.687,164.271 256.017 C 164.797 254.625,164.639 254.405,163.988 255.622 M321.260 262.050 C 321.227 262.627,321.111 263.707,321.001 264.450 L 320.803 265.800 321.224 264.457 C 321.455 263.719,321.572 262.639,321.482 262.057 L 321.320 261.000 321.260 262.050 M159.300 266.500 C 158.870 267.675,158.880 267.726,159.412 267.024 C 159.921 266.352,160.221 265.200,159.888 265.200 C 159.826 265.200,159.561 265.785,159.300 266.500 M217.500 267.626 C 217.115 267.853,216.800 268.239,216.800 268.482 C 216.800 268.725,217.129 268.626,217.531 268.262 C 218.421 267.457,252.592 267.239,254.674 268.025 C 255.603 268.376,255.709 268.358,255.280 267.925 C 254.610 267.248,218.620 266.963,217.500 267.626 M216.065 270.217 C 215.395 271.688,215.523 272.002,216.247 270.665 C 216.586 270.040,216.788 269.454,216.696 269.363 C 216.605 269.271,216.321 269.656,216.065 270.217 M318.485 272.813 C 318.218 273.240,318.001 273.817,318.002 274.095 C 318.004 274.373,318.277 274.078,318.610 273.440 C 319.303 272.111,319.211 271.650,318.485 272.813 M239.100 275.499 C 241.575 275.569,245.625 275.569,248.100 275.499 C 250.575 275.428,248.550 275.371,243.600 275.371 C 238.650 275.371,236.625 275.428,239.100 275.499 M316.162 277.918 C 315.937 278.293,315.325 279.307,314.800 280.171 C 314.276 281.035,314.047 281.618,314.292 281.467 C 314.777 281.167,316.887 277.553,316.691 277.357 C 316.624 277.291,316.386 277.543,316.162 277.918 M152.485 281.613 C 152.218 282.040,152.001 282.617,152.002 282.895 C 152.004 283.173,152.277 282.878,152.610 282.240 C 153.303 280.911,153.211 280.450,152.485 281.613 M311.391 285.028 C 309.312 287.743,304.859 291.995,302.414 293.600 C 300.650 294.758,299.586 295.772,301.000 294.948 C 304.338 293.003,310.144 287.518,312.725 283.872 C 314.791 280.953,313.962 281.672,311.391 285.028 M293.300 298.596 C 292.585 298.907,292.000 299.251,292.000 299.360 C 292.000 299.552,294.828 298.478,295.167 298.158 C 295.516 297.827,294.547 298.054,293.300 298.596 M289.200 300.200 C 287.894 300.947,288.351 300.955,290.054 300.216 C 290.794 299.894,291.130 299.631,290.800 299.630 C 290.470 299.629,289.750 299.886,289.200 300.200 M284.400 301.600 C 283.867 301.945,283.867 301.988,284.400 301.988 C 284.730 301.988,285.270 301.813,285.600 301.600 C 286.133 301.255,286.133 301.212,285.600 301.212 C 285.270 301.212,284.730 301.387,284.400 301.600 M143.188 302.422 C 142.946 302.874,142.807 303.422,142.880 303.639 C 142.952 303.857,143.218 303.487,143.471 302.817 C 143.997 301.425,143.839 301.205,143.188 302.422 M277.600 302.800 L 276.600 303.120 277.600 303.113 C 278.150 303.109,279.140 302.968,279.800 302.800 L 281.000 302.495 279.800 302.487 C 279.140 302.483,278.150 302.624,277.600 302.800 M273.575 303.830 C 272.991 304.533,273.636 305.226,274.800 305.147 C 275.204 305.120,275.165 305.046,274.678 304.920 C 273.711 304.669,274.026 303.887,275.230 303.551 L 276.200 303.280 275.149 303.240 C 274.571 303.218,273.862 303.484,273.575 303.830 M279.824 306.987 C 280.251 307.310,280.780 307.575,281.000 307.575 C 281.220 307.575,281.051 307.310,280.624 306.987 C 280.196 306.664,279.667 306.400,279.447 306.400 C 279.227 306.400,279.396 306.664,279.824 306.987 M282.803 308.313 C 282.805 308.471,283.527 308.991,284.408 309.469 C 285.289 309.947,285.918 310.191,285.806 310.010 C 285.497 309.510,282.800 307.986,282.803 308.313 M290.589 314.310 C 292.123 315.900,293.460 317.200,293.559 317.200 C 293.779 317.200,292.167 315.364,290.800 314.057 C 288.200 311.573,288.083 311.713,290.589 314.310 M138.500 313.300 C 138.070 314.475,138.080 314.526,138.612 313.824 C 139.121 313.152,139.421 312.000,139.088 312.000 C 139.026 312.000,138.761 312.585,138.500 313.300 M136.885 316.813 C 136.618 317.240,136.401 317.817,136.402 318.095 C 136.404 318.373,136.677 318.078,137.010 317.440 C 137.703 316.111,137.611 315.650,136.885 316.813 M205.329 324.300 C 212.330 324.361,223.670 324.361,230.529 324.300 C 237.388 324.238,231.660 324.188,217.800 324.188 C 203.940 324.188,198.328 324.239,205.329 324.300 M191.492 325.658 C 191.112 326.322,190.800 327.073,190.800 327.326 C 190.800 327.580,191.171 327.097,191.624 326.251 C 192.603 324.425,192.491 323.919,191.492 325.658 M243.440 324.706 C 244.327 325.298,244.869 326.914,244.659 328.342 L 244.445 329.800 244.887 328.479 C 245.376 327.014,244.488 324.394,243.506 324.406 C 243.158 324.410,243.137 324.504,243.440 324.706 M190.057 328.857 C 189.775 329.309,189.632 329.766,189.740 329.873 C 189.847 329.981,190.144 329.678,190.400 329.200 C 191.005 328.070,190.724 327.790,190.057 328.857 M242.800 331.400 C 242.526 331.730,242.009 332.014,241.651 332.032 C 241.242 332.051,241.185 332.138,241.496 332.264 C 241.769 332.374,242.468 332.090,243.050 331.632 C 243.632 331.174,243.926 330.800,243.703 330.800 C 243.480 330.800,243.074 331.070,242.800 331.400 M189.303 332.400 C 189.446 332.925,192.472 333.001,213.433 333.005 L 237.400 333.010 213.622 332.902 C 195.237 332.818,189.763 332.681,189.491 332.297 C 189.232 331.932,189.183 331.959,189.303 332.400 M301.386 342.200 C 301.378 347.937,301.413 348.274,301.723 345.448 C 301.914 343.707,301.919 340.841,301.733 339.048 C 301.427 336.102,301.394 336.396,301.386 342.200 M122.388 349.222 C 122.146 349.674,122.007 350.222,122.080 350.439 C 122.152 350.657,122.418 350.287,122.671 349.617 C 123.197 348.225,123.039 348.005,122.388 349.222 M300.200 352.800 C 300.050 353.273,300.017 353.750,300.127 353.860 C 300.237 353.970,300.450 353.673,300.600 353.200 C 300.750 352.727,300.783 352.250,300.673 352.140 C 300.563 352.030,300.350 352.327,300.200 352.800 M117.700 360.100 C 117.270 361.275,117.280 361.326,117.812 360.624 C 118.321 359.952,118.621 358.800,118.288 358.800 C 118.226 358.800,117.961 359.385,117.700 360.100 M116.085 363.613 C 115.818 364.040,115.601 364.617,115.602 364.895 C 115.604 365.173,115.877 364.878,116.210 364.240 C 116.903 362.911,116.811 362.450,116.085 363.613 M286.000 372.673 C 283.323 374.731,283.086 375.160,285.600 373.394 C 286.810 372.545,287.875 371.793,287.967 371.725 C 288.058 371.656,288.058 371.530,287.967 371.444 C 287.875 371.359,286.990 371.912,286.000 372.673 M280.800 376.200 C 279.590 376.960,278.732 377.586,278.894 377.591 C 279.255 377.602,283.200 375.197,283.200 374.966 C 283.200 374.702,283.116 374.745,280.800 376.200 M274.400 379.400 C 273.850 379.714,273.580 379.972,273.800 379.972 C 274.020 379.972,274.650 379.714,275.200 379.400 C 275.750 379.086,276.020 378.828,275.800 378.828 C 275.580 378.828,274.950 379.086,274.400 379.400 M108.253 381.300 L 107.533 382.600 108.358 381.600 C 109.089 380.713,109.414 380.000,109.086 380.000 C 109.024 380.000,108.649 380.585,108.253 381.300 M271.200 380.600 C 269.894 381.347,270.351 381.355,272.054 380.616 C 272.794 380.294,273.130 380.031,272.800 380.030 C 272.470 380.029,271.750 380.286,271.200 380.600 M266.000 382.000 C 265.205 382.514,266.204 382.514,267.400 382.000 L 268.200 381.656 267.400 381.634 C 266.960 381.622,266.330 381.787,266.000 382.000 M108.320 383.268 C 108.474 383.416,142.800 383.388,184.600 383.206 L 260.600 382.876 184.320 382.938 C 142.367 382.972,108.167 383.121,108.320 383.268 " stroke="none" fill="#f2d25b" fill-rule="evenodd"></path><path id="path2" d="M174.800 20.440 C 56.655 20.901,58.823 20.875,55.163 21.892 C 41.367 25.723,31.193 36.497,28.543 50.079 C 27.588 54.975,28.476 382.147,29.456 386.600 C 32.946 402.450,44.355 413.282,60.000 415.598 C 62.572 415.979,255.370 415.603,330.600 415.070 C 345.574 414.964,348.600 414.689,351.295 413.187 C 351.677 412.974,352.200 412.800,352.458 412.800 C 353.525 412.800,358.815 409.770,361.795 407.453 C 367.747 402.825,371.988 396.574,374.450 388.800 L 375.400 385.800 375.369 312.000 C 375.304 159.673,374.818 53.098,374.173 49.697 C 373.407 45.662,372.863 43.976,371.043 40.000 C 369.145 35.852,363.462 29.414,359.000 26.356 C 355.377 23.873,350.042 21.605,345.800 20.743 C 342.709 20.115,284.324 20.012,174.800 20.440 M229.200 39.576 C 230.630 39.856,232.430 40.323,233.200 40.614 C 233.970 40.904,235.095 41.248,235.700 41.379 C 236.305 41.509,236.800 41.792,236.800 42.008 C 236.800 42.223,237.209 42.400,237.709 42.400 C 238.209 42.400,239.575 43.030,240.744 43.800 C 241.913 44.570,242.999 45.200,243.158 45.200 C 244.123 45.200,250.733 51.795,251.056 53.080 C 251.183 53.586,251.406 54.000,251.552 54.000 C 251.919 54.000,253.938 58.142,255.195 61.473 C 255.459 62.173,255.887 62.665,256.146 62.565 C 256.678 62.361,259.229 65.578,260.929 68.596 C 272.062 88.366,260.219 115.792,236.237 125.775 C 232.669 127.261,229.191 128.400,228.225 128.400 C 227.456 128.400,227.433 128.744,228.147 129.569 C 229.425 131.044,231.600 134.436,231.600 134.953 C 231.600 135.262,231.870 135.618,232.200 135.745 C 232.530 135.871,232.800 136.420,232.800 136.964 C 232.800 137.508,232.988 138.069,233.217 138.210 C 233.446 138.352,233.916 139.173,234.260 140.034 C 234.605 140.895,235.107 141.600,235.376 141.600 C 235.847 141.600,237.231 143.458,239.829 147.578 C 246.325 157.880,247.186 173.872,241.877 185.600 C 238.557 192.934,228.296 202.048,219.139 205.796 C 217.743 206.368,216.240 206.992,215.800 207.182 C 213.655 208.111,210.287 208.904,206.441 209.388 C 201.656 209.990,50.977 210.685,50.161 210.109 C 49.756 209.823,45.200 202.157,45.200 201.760 C 45.200 201.663,44.719 200.823,44.132 199.892 C 43.544 198.961,43.106 198.132,43.157 198.049 C 43.208 197.967,42.834 197.689,42.325 197.433 C 41.400 196.966,41.199 195.176,42.038 194.867 C 42.237 194.793,42.400 194.478,42.400 194.165 C 42.400 193.853,42.760 192.925,43.200 192.104 C 43.640 191.284,44.000 190.406,44.000 190.155 C 44.000 189.904,44.270 189.474,44.600 189.200 C 44.930 188.926,45.200 188.268,45.200 187.738 C 45.200 187.209,45.470 186.671,45.800 186.545 C 46.134 186.417,46.400 185.822,46.400 185.206 C 46.400 184.597,46.651 183.890,46.958 183.635 C 47.265 183.380,47.633 182.548,47.776 181.786 C 47.919 181.024,48.208 180.400,48.418 180.400 C 48.628 180.400,48.800 180.172,48.800 179.894 C 48.800 179.616,49.160 178.716,49.600 177.896 C 50.040 177.075,50.400 176.127,50.400 175.789 C 50.400 175.451,50.670 175.071,51.000 174.945 C 51.330 174.818,51.600 174.266,51.600 173.719 C 51.600 173.171,51.848 172.246,52.150 171.662 C 53.109 169.813,54.400 166.923,54.400 166.628 C 54.400 166.471,54.670 166.073,55.000 165.743 C 55.330 165.413,55.600 164.818,55.600 164.420 C 55.600 164.023,55.870 163.474,56.200 163.200 C 56.530 162.926,56.800 162.347,56.800 161.913 C 56.800 161.479,57.048 160.646,57.350 160.062 C 58.447 157.945,59.600 155.303,59.600 154.905 C 59.600 154.681,59.870 154.274,60.200 154.000 C 60.530 153.726,60.800 153.186,60.800 152.800 C 60.800 152.414,61.070 151.874,61.400 151.600 C 61.730 151.326,62.000 150.606,62.000 150.000 C 62.000 149.394,62.270 148.674,62.600 148.400 C 62.930 148.126,63.200 147.637,63.200 147.313 C 63.200 146.989,63.455 146.246,63.766 145.662 C 65.112 143.134,66.000 141.137,66.000 140.637 C 66.000 140.340,66.270 139.874,66.600 139.600 C 66.930 139.326,67.200 138.696,67.200 138.200 C 67.200 137.704,67.451 137.090,67.758 136.835 C 68.065 136.580,68.433 135.748,68.576 134.986 C 68.719 134.224,69.008 133.600,69.218 133.600 C 69.428 133.600,69.600 133.321,69.600 132.979 C 69.600 132.638,69.945 131.693,70.366 130.879 C 70.787 130.066,71.393 128.770,71.712 128.000 C 72.031 127.230,72.574 125.970,72.919 125.200 C 73.263 124.430,73.660 123.395,73.799 122.900 C 73.939 122.405,74.202 122.000,74.382 122.000 C 74.563 122.000,74.829 121.370,74.974 120.600 C 75.118 119.830,75.396 119.200,75.591 119.200 C 75.786 119.200,76.061 118.795,76.201 118.300 C 76.340 117.805,76.713 116.815,77.027 116.100 C 77.342 115.385,77.844 114.215,78.143 113.500 C 78.442 112.785,79.072 111.370,79.543 110.356 C 80.014 109.342,80.400 108.307,80.400 108.056 C 80.400 107.805,80.572 107.600,80.782 107.600 C 80.992 107.600,81.281 106.976,81.424 106.214 C 81.567 105.452,81.935 104.620,82.242 104.365 C 82.549 104.110,82.800 103.496,82.800 103.000 C 82.800 102.504,83.070 101.874,83.400 101.600 C 83.730 101.326,84.000 100.837,84.000 100.513 C 84.000 100.189,84.242 99.446,84.539 98.862 C 84.835 98.278,85.493 96.900,86.000 95.800 C 86.507 94.700,87.140 93.350,87.407 92.800 C 87.673 92.250,88.009 91.305,88.153 90.700 C 88.297 90.095,88.592 89.600,88.808 89.600 C 89.023 89.600,89.200 89.163,89.200 88.629 C 89.200 88.094,89.470 87.387,89.800 87.057 C 90.130 86.727,90.400 86.247,90.400 85.990 C 90.400 85.734,90.658 85.046,90.973 84.462 C 91.287 83.878,91.937 82.500,92.416 81.400 C 92.895 80.300,93.524 78.860,93.816 78.200 C 94.107 77.540,94.460 76.595,94.599 76.100 C 94.739 75.605,95.022 75.200,95.227 75.200 C 95.432 75.200,95.600 74.913,95.600 74.562 C 95.600 74.211,95.858 73.446,96.173 72.862 C 96.734 71.821,98.005 68.981,98.975 66.600 C 99.244 65.940,99.752 64.770,100.105 64.000 C 100.457 63.230,100.860 62.195,100.999 61.700 C 101.139 61.205,101.402 60.800,101.584 60.800 C 101.765 60.800,102.029 60.305,102.170 59.700 C 102.312 59.095,102.680 58.060,102.988 57.400 C 103.297 56.740,103.649 55.930,103.772 55.600 C 103.895 55.270,104.150 54.730,104.339 54.400 C 104.528 54.070,104.954 53.170,105.285 52.400 C 106.563 49.425,107.676 46.959,108.173 46.000 C 108.458 45.450,108.809 44.505,108.953 43.900 C 109.097 43.295,109.392 42.800,109.608 42.800 C 109.823 42.800,110.000 42.378,110.000 41.862 C 110.000 39.525,110.548 39.420,123.941 39.187 C 149.232 38.747,226.429 39.033,229.200 39.576 M313.956 123.700 C 314.970 124.195,316.034 124.821,316.320 125.091 C 316.606 125.361,317.064 125.721,317.338 125.891 C 318.438 126.572,319.617 129.304,319.661 131.274 C 319.690 132.545,319.831 133.079,320.047 132.738 C 320.572 131.909,320.483 134.229,319.918 136.117 C 319.211 138.474,316.211 141.267,312.506 143.018 C 310.797 143.824,309.087 144.645,308.705 144.842 C 308.323 145.039,307.738 145.200,307.405 145.200 C 307.072 145.200,306.800 145.372,306.800 145.582 C 306.800 146.010,310.865 154.087,311.238 154.400 C 311.369 154.510,311.729 155.087,312.038 155.682 C 312.920 157.380,316.169 161.996,316.484 161.998 C 317.142 162.003,320.400 157.406,320.400 156.473 C 320.400 156.047,320.679 155.466,321.020 155.183 C 321.947 154.414,321.648 151.801,320.633 151.798 C 320.211 151.797,319.781 151.544,319.678 151.235 C 319.549 150.846,319.696 150.751,320.155 150.927 C 320.710 151.140,320.749 151.053,320.395 150.391 C 320.154 149.941,319.559 149.600,319.013 149.600 C 317.383 149.600,317.155 146.062,318.733 145.249 C 320.378 144.401,337.183 144.420,337.638 145.271 C 337.964 145.881,337.916 146.229,337.432 146.765 C 336.632 147.648,336.637 147.993,337.459 148.594 C 338.258 149.178,337.976 150.546,336.758 151.992 C 336.020 152.869,335.520 153.008,332.461 153.192 L 329.000 153.400 327.263 156.800 C 325.596 160.063,324.278 161.935,321.731 164.660 C 320.844 165.610,320.657 166.056,320.976 166.467 C 321.732 167.440,324.699 169.600,325.281 169.600 C 325.592 169.600,326.196 169.864,326.624 170.187 C 327.652 170.965,329.969 170.954,331.554 170.163 C 333.274 169.305,334.000 169.659,334.000 171.356 C 334.000 172.557,333.848 172.770,332.828 172.994 C 330.459 173.514,330.473 174.399,332.851 174.412 C 334.669 174.422,334.877 174.495,334.200 174.883 C 333.760 175.135,333.220 175.581,333.000 175.873 C 331.727 177.562,324.443 178.459,321.800 177.252 C 319.723 176.303,316.935 174.400,317.622 174.400 C 317.915 174.400,317.535 173.942,316.778 173.382 C 315.262 172.263,314.207 172.313,312.413 173.591 C 306.812 177.579,299.355 179.040,293.752 177.247 C 290.848 176.318,288.400 174.906,288.400 174.160 C 288.400 173.852,288.100 173.600,287.733 173.600 C 287.367 173.600,287.154 173.512,287.261 173.405 C 287.368 173.298,286.408 172.107,285.128 170.757 C 283.848 169.407,282.800 167.999,282.800 167.628 C 282.800 167.257,282.536 166.604,282.213 166.176 C 281.384 165.081,281.365 158.064,282.187 156.976 C 282.510 156.549,282.780 155.789,282.787 155.287 C 282.794 154.786,283.070 154.271,283.400 154.145 C 283.730 154.018,284.000 153.560,284.000 153.126 C 284.000 151.590,293.155 143.600,294.915 143.600 C 296.529 143.600,297.152 141.629,296.164 139.648 C 295.248 137.812,295.491 130.450,296.500 129.442 C 296.885 129.057,297.200 128.519,297.200 128.246 C 297.200 124.522,309.052 121.306,313.956 123.700 M298.525 148.501 C 298.346 148.786,297.690 149.344,297.067 149.740 C 293.530 151.992,291.411 154.894,290.991 158.063 C 290.864 159.018,290.559 160.479,290.313 161.308 C 289.722 163.304,290.928 165.990,293.596 168.619 C 294.144 169.158,294.806 169.600,295.067 169.600 C 295.329 169.600,295.858 169.915,296.243 170.300 C 297.317 171.374,305.228 171.267,307.200 170.153 C 311.003 168.003,310.965 168.111,308.900 165.312 C 308.075 164.194,307.130 162.880,306.800 162.393 C 306.470 161.906,305.885 161.095,305.500 160.591 C 305.115 160.086,304.800 159.499,304.800 159.286 C 304.800 159.073,304.530 158.674,304.200 158.400 C 303.870 158.126,303.600 157.558,303.600 157.138 C 303.600 156.719,303.341 156.276,303.024 156.154 C 302.708 156.033,302.336 155.421,302.199 154.794 C 302.061 154.168,301.690 153.441,301.374 153.179 C 301.058 152.917,300.800 152.351,300.800 151.922 C 300.800 151.494,300.530 150.873,300.200 150.543 C 299.870 150.213,299.600 149.606,299.600 149.195 C 299.600 148.244,298.949 147.824,298.525 148.501 M293.738 226.200 C 294.528 226.530,295.866 226.800,296.711 226.800 C 297.556 226.800,298.596 227.064,299.024 227.387 C 299.451 227.710,300.282 227.980,300.871 227.987 C 301.461 227.994,302.213 228.270,302.543 228.600 C 302.873 228.930,303.326 229.200,303.550 229.200 C 304.091 229.200,307.116 230.820,309.249 232.252 C 311.428 233.715,316.000 238.315,316.000 239.045 C 316.000 239.350,316.184 239.600,316.410 239.600 C 316.635 239.600,317.003 240.005,317.226 240.500 C 317.449 240.995,318.162 242.390,318.809 243.600 C 319.457 244.810,319.990 246.100,319.993 246.466 C 319.997 246.832,320.920 248.092,322.044 249.266 C 330.900 258.512,333.257 273.840,327.754 286.400 C 323.803 295.420,319.123 301.493,312.149 306.651 C 309.010 308.972,301.281 313.200,300.176 313.200 C 299.853 313.200,299.277 313.373,298.895 313.585 C 298.513 313.796,297.094 314.281,295.743 314.661 C 292.991 315.435,292.918 315.960,295.212 318.476 C 296.317 319.688,299.196 324.893,299.206 325.698 C 299.210 325.974,299.773 326.830,300.458 327.600 C 314.161 343.002,314.420 368.670,301.002 381.334 C 292.649 389.218,281.973 394.812,273.000 396.008 C 266.642 396.855,115.872 396.999,115.138 396.158 C 114.774 395.741,113.711 393.960,112.777 392.200 C 111.842 390.440,110.477 388.055,109.743 386.900 C 109.010 385.745,108.498 384.800,108.605 384.800 C 108.712 384.800,108.428 384.428,107.974 383.974 C 107.063 383.063,107.191 381.166,108.245 379.969 C 108.550 379.621,108.800 379.058,108.800 378.717 C 108.800 378.377,109.070 377.874,109.400 377.600 C 109.730 377.326,110.000 376.696,110.000 376.200 C 110.000 375.704,110.270 375.074,110.600 374.800 C 110.930 374.526,111.201 373.919,111.203 373.451 C 111.204 372.983,111.563 372.060,112.000 371.400 C 112.437 370.740,112.796 369.907,112.797 369.549 C 112.799 369.191,113.070 368.674,113.400 368.400 C 113.730 368.126,114.000 367.468,114.000 366.938 C 114.000 366.409,114.270 365.871,114.600 365.745 C 114.930 365.618,115.200 365.097,115.200 364.586 C 115.200 364.075,115.470 363.387,115.800 363.057 C 116.130 362.727,116.400 362.174,116.400 361.827 C 116.400 361.481,116.760 360.525,117.200 359.704 C 117.640 358.884,118.000 358.006,118.000 357.755 C 118.000 357.504,118.270 357.074,118.600 356.800 C 118.930 356.526,119.200 355.868,119.200 355.338 C 119.200 354.809,119.470 354.271,119.800 354.145 C 120.134 354.017,120.400 353.422,120.400 352.806 C 120.400 352.197,120.670 351.474,121.000 351.200 C 121.330 350.926,121.600 350.453,121.600 350.150 C 121.600 349.846,121.960 348.925,122.400 348.104 C 122.840 347.284,123.200 346.406,123.200 346.155 C 123.200 345.904,123.470 345.474,123.800 345.200 C 124.130 344.926,124.400 344.296,124.400 343.800 C 124.400 343.304,124.670 342.674,125.000 342.400 C 125.330 342.126,125.600 341.496,125.600 341.000 C 125.600 340.504,125.870 339.874,126.200 339.600 C 126.530 339.326,126.800 338.806,126.800 338.445 C 126.800 338.084,127.160 337.116,127.600 336.296 C 128.040 335.475,128.400 334.554,128.400 334.250 C 128.400 333.947,128.670 333.474,129.000 333.200 C 129.330 332.926,129.600 332.386,129.600 332.000 C 129.600 331.614,129.870 331.074,130.200 330.800 C 130.530 330.526,130.800 329.947,130.800 329.513 C 130.800 329.079,131.048 328.246,131.350 327.662 C 132.447 325.545,133.600 322.903,133.600 322.505 C 133.600 322.281,133.870 321.874,134.200 321.600 C 134.530 321.326,134.800 320.693,134.800 320.194 C 134.800 319.694,135.070 319.182,135.400 319.055 C 135.730 318.929,136.000 318.442,136.000 317.974 C 136.000 317.506,136.248 316.646,136.550 316.062 C 137.647 313.945,138.800 311.303,138.800 310.905 C 138.800 310.681,139.070 310.274,139.400 310.000 C 139.730 309.726,140.000 309.068,140.000 308.538 C 140.000 308.009,140.270 307.471,140.600 307.345 C 140.934 307.217,141.200 306.622,141.200 306.006 C 141.200 305.397,141.451 304.690,141.758 304.435 C 142.065 304.180,142.433 303.348,142.576 302.586 C 142.719 301.824,142.994 301.200,143.186 301.200 C 143.379 301.200,143.652 300.672,143.794 300.028 C 143.936 299.383,144.310 298.641,144.626 298.379 C 144.942 298.117,145.200 297.496,145.200 297.000 C 145.200 296.504,145.470 295.874,145.800 295.600 C 146.130 295.326,146.400 294.696,146.400 294.200 C 146.400 293.704,146.670 293.074,147.000 292.800 C 147.330 292.526,147.606 292.009,147.614 291.651 C 147.621 291.293,147.975 290.280,148.400 289.400 C 148.825 288.520,149.179 287.652,149.186 287.471 C 149.194 287.291,149.470 286.873,149.800 286.543 C 150.130 286.213,150.400 285.618,150.400 285.220 C 150.400 284.823,150.670 284.274,151.000 284.000 C 151.330 283.726,151.600 283.147,151.600 282.713 C 151.600 282.279,151.848 281.446,152.150 280.862 C 153.247 278.745,154.400 276.103,154.400 275.705 C 154.400 275.481,154.670 275.074,155.000 274.800 C 155.330 274.526,155.600 273.986,155.600 273.600 C 155.600 273.214,155.870 272.674,156.200 272.400 C 156.530 272.126,156.800 271.547,156.800 271.113 C 156.800 270.679,157.048 269.846,157.350 269.262 C 157.653 268.678,158.295 267.300,158.778 266.200 C 159.260 265.100,159.913 263.722,160.227 263.138 C 160.542 262.554,160.800 261.784,160.800 261.426 C 160.800 261.068,161.070 260.671,161.400 260.545 C 161.734 260.417,162.000 259.822,162.000 259.206 C 162.000 258.597,162.251 257.890,162.558 257.635 C 162.865 257.380,163.233 256.548,163.376 255.786 C 163.519 255.024,163.808 254.400,164.018 254.400 C 164.228 254.400,164.401 254.085,164.403 253.700 C 164.404 253.315,164.763 252.460,165.200 251.800 C 165.637 251.140,165.996 250.279,165.997 249.887 C 165.999 249.496,166.270 249.071,166.600 248.945 C 166.930 248.818,167.200 248.266,167.200 247.719 C 167.200 247.171,167.448 246.246,167.750 245.662 C 168.709 243.813,170.000 240.923,170.000 240.628 C 170.000 240.471,170.270 240.073,170.600 239.743 C 170.930 239.413,171.200 238.818,171.200 238.420 C 171.200 238.023,171.470 237.474,171.800 237.200 C 172.130 236.926,172.400 236.347,172.400 235.913 C 172.400 235.479,172.643 234.646,172.939 234.062 C 173.587 232.787,174.619 230.573,175.207 229.200 C 176.027 227.282,176.767 226.222,177.481 225.940 C 179.091 225.304,292.200 225.557,293.738 226.200 " stroke="none" fill="#04531b" fill-rule="evenodd"></path><path id="path3" d="M172.000 18.008 C 51.099 18.296,58.757 18.147,52.079 20.345 C 39.441 24.505,29.692 35.080,26.401 48.200 L 25.498 51.800 25.779 216.200 C 26.080 392.341,25.983 384.618,27.982 391.000 C 32.007 403.848,41.745 413.168,55.400 417.239 C 59.549 418.476,62.518 418.492,210.400 418.045 C 355.250 417.607,345.763 417.785,352.374 415.388 C 365.093 410.776,373.769 401.020,377.264 387.400 L 378.085 384.200 377.819 228.000 C 377.547 68.026,377.394 50.436,376.249 47.200 C 375.898 46.210,375.609 45.165,375.606 44.878 C 375.587 43.159,371.861 36.256,368.911 32.474 C 363.684 25.774,357.729 21.882,347.600 18.547 C 344.886 17.653,334.287 17.621,172.000 18.008 M343.400 18.779 C 344.280 18.968,346.080 19.335,347.400 19.594 C 348.720 19.853,349.971 20.230,350.180 20.432 C 350.389 20.635,350.841 20.800,351.184 20.800 C 352.046 20.800,357.347 23.488,360.006 25.273 C 363.976 27.940,369.828 34.249,371.252 37.400 C 371.451 37.840,372.060 38.993,372.607 39.963 C 373.153 40.933,373.601 41.923,373.602 42.163 C 373.604 42.403,373.867 43.102,374.187 43.717 C 374.746 44.788,375.038 45.975,375.928 50.800 C 376.191 52.226,376.418 87.535,376.572 151.200 C 376.703 205.210,376.896 262.180,377.000 277.800 C 377.669 378.373,377.669 379.882,376.995 383.739 C 376.117 388.773,374.580 393.746,373.207 396.000 C 373.006 396.330,372.459 397.306,371.992 398.168 C 367.551 406.362,359.475 412.293,348.000 415.786 C 343.959 417.017,64.796 418.229,59.089 417.041 C 55.108 416.213,51.749 415.243,50.400 414.532 C 49.850 414.242,48.950 413.821,48.400 413.596 C 42.528 411.191,34.956 403.858,31.676 397.400 C 29.935 393.974,28.800 391.210,28.800 390.398 C 28.800 390.013,28.486 389.001,28.103 388.149 C 27.293 386.350,27.102 358.200,26.576 162.268 C 26.243 38.326,25.952 49.780,29.644 41.756 C 30.060 40.852,30.400 39.907,30.400 39.656 C 30.400 39.405,30.580 39.200,30.800 39.200 C 31.020 39.200,31.200 38.950,31.200 38.645 C 31.200 37.176,38.028 29.291,41.359 26.914 C 42.041 26.427,42.789 25.887,43.019 25.714 C 44.000 24.979,47.111 23.378,50.600 21.812 C 51.765 21.288,53.711 20.731,57.000 19.977 C 58.508 19.632,168.612 18.886,247.800 18.685 C 267.160 18.636,296.230 18.559,312.400 18.515 C 328.570 18.471,342.520 18.590,343.400 18.779 M123.941 39.187 C 110.548 39.420,110.000 39.525,110.000 41.862 C 110.000 42.378,109.823 42.800,109.608 42.800 C 109.392 42.800,109.097 43.295,108.953 43.900 C 108.809 44.505,108.458 45.450,108.173 46.000 C 107.676 46.959,106.563 49.425,105.285 52.400 C 104.954 53.170,104.528 54.070,104.339 54.400 C 104.150 54.730,103.895 55.270,103.772 55.600 C 103.649 55.930,103.297 56.740,102.988 57.400 C 102.680 58.060,102.312 59.095,102.170 59.700 C 102.029 60.305,101.765 60.800,101.584 60.800 C 101.402 60.800,101.139 61.205,100.999 61.700 C 100.860 62.195,100.457 63.230,100.105 64.000 C 99.752 64.770,99.244 65.940,98.975 66.600 C 98.005 68.981,96.734 71.821,96.173 72.862 C 95.858 73.446,95.600 74.211,95.600 74.562 C 95.600 74.913,95.432 75.200,95.227 75.200 C 95.022 75.200,94.739 75.605,94.599 76.100 C 94.460 76.595,94.107 77.540,93.816 78.200 C 93.524 78.860,92.895 80.300,92.416 81.400 C 91.937 82.500,91.287 83.878,90.973 84.462 C 90.658 85.046,90.400 85.734,90.400 85.990 C 90.400 86.247,90.130 86.727,89.800 87.057 C 89.470 87.387,89.200 88.094,89.200 88.629 C 89.200 89.163,89.023 89.600,88.808 89.600 C 88.592 89.600,88.297 90.095,88.153 90.700 C 88.009 91.305,87.673 92.250,87.407 92.800 C 87.140 93.350,86.507 94.700,86.000 95.800 C 85.493 96.900,84.835 98.278,84.539 98.862 C 84.242 99.446,84.000 100.189,84.000 100.513 C 84.000 100.837,83.730 101.326,83.400 101.600 C 83.070 101.874,82.800 102.504,82.800 103.000 C 82.800 103.496,82.549 104.110,82.242 104.365 C 81.935 104.620,81.567 105.452,81.424 106.214 C 81.281 106.976,80.992 107.600,80.782 107.600 C 80.572 107.600,80.400 107.805,80.400 108.056 C 80.400 108.307,80.014 109.342,79.543 110.356 C 79.072 111.370,78.442 112.785,78.143 113.500 C 77.844 114.215,77.342 115.385,77.027 116.100 C 76.713 116.815,76.340 117.805,76.201 118.300 C 76.061 118.795,75.786 119.200,75.591 119.200 C 75.396 119.200,75.118 119.830,74.974 120.600 C 74.829 121.370,74.563 122.000,74.382 122.000 C 74.202 122.000,73.939 122.405,73.799 122.900 C 73.660 123.395,73.263 124.430,72.919 125.200 C 72.574 125.970,72.031 127.230,71.712 128.000 C 71.393 128.770,70.787 130.066,70.366 130.879 C 69.945 131.693,69.600 132.638,69.600 132.979 C 69.600 133.321,69.428 133.600,69.218 133.600 C 69.008 133.600,68.719 134.224,68.576 134.986 C 68.433 135.748,68.065 136.580,67.758 136.835 C 67.451 137.090,67.200 137.704,67.200 138.200 C 67.200 138.696,66.930 139.326,66.600 139.600 C 66.270 139.874,66.000 140.340,66.000 140.637 C 66.000 141.137,65.112 143.134,63.766 145.662 C 63.455 146.246,63.200 146.989,63.200 147.313 C 63.200 147.637,62.930 148.126,62.600 148.400 C 62.270 148.674,62.000 149.394,62.000 150.000 C 62.000 150.606,61.730 151.326,61.400 151.600 C 61.070 151.874,60.800 152.414,60.800 152.800 C 60.800 153.186,60.530 153.726,60.200 154.000 C 59.870 154.274,59.600 154.681,59.600 154.905 C 59.600 155.303,58.447 157.945,57.350 160.062 C 57.048 160.646,56.800 161.479,56.800 161.913 C 56.800 162.347,56.530 162.926,56.200 163.200 C 55.870 163.474,55.600 164.023,55.600 164.420 C 55.600 164.818,55.330 165.413,55.000 165.743 C 54.670 166.073,54.400 166.471,54.400 166.628 C 54.400 166.923,53.109 169.813,52.150 171.662 C 51.848 172.246,51.600 173.171,51.600 173.719 C 51.600 174.266,51.330 174.818,51.000 174.945 C 50.670 175.071,50.400 175.451,50.400 175.789 C 50.400 176.127,50.040 177.075,49.600 177.896 C 49.160 178.716,48.800 179.616,48.800 179.894 C 48.800 180.172,48.628 180.400,48.418 180.400 C 48.208 180.400,47.919 181.024,47.776 181.786 C 47.633 182.548,47.265 183.380,46.958 183.635 C 46.651 183.890,46.400 184.597,46.400 185.206 C 46.400 185.822,46.134 186.417,45.800 186.545 C 45.470 186.671,45.200 187.209,45.200 187.738 C 45.200 188.268,44.930 188.926,44.600 189.200 C 44.270 189.474,44.000 189.904,44.000 190.155 C 44.000 190.406,43.640 191.284,43.200 192.104 C 42.760 192.925,42.400 193.868,42.400 194.199 C 42.400 194.529,42.241 194.800,42.047 194.800 C 41.508 194.800,41.262 196.702,41.739 197.179 C 42.277 197.717,191.380 197.730,195.200 197.194 C 203.993 195.958,205.255 195.613,211.200 192.821 C 219.537 188.907,231.600 179.055,231.600 176.161 C 231.600 175.900,231.870 175.582,232.200 175.455 C 232.530 175.329,232.800 174.895,232.800 174.493 C 232.800 174.090,233.010 173.550,233.267 173.293 C 233.800 172.760,234.668 170.544,235.263 168.200 C 235.486 167.320,235.878 166.168,236.134 165.640 C 236.961 163.935,236.756 147.515,235.872 144.600 C 234.917 141.455,233.976 139.151,233.325 138.369 C 233.036 138.021,232.800 137.341,232.800 136.856 C 232.800 136.371,232.530 135.871,232.200 135.745 C 231.870 135.618,231.600 135.269,231.600 134.970 C 231.600 132.603,221.069 121.600,218.804 121.600 C 218.582 121.600,218.400 121.438,218.400 121.239 C 218.400 121.041,217.905 120.683,217.300 120.445 C 216.695 120.207,215.930 119.839,215.600 119.628 C 215.270 119.417,213.830 118.789,212.400 118.233 L 209.800 117.223 212.000 117.202 C 213.210 117.190,214.920 116.993,215.800 116.763 C 216.680 116.534,218.300 116.172,219.400 115.959 C 220.500 115.746,221.760 115.410,222.200 115.211 C 222.640 115.013,223.450 114.737,224.000 114.598 C 224.550 114.459,225.630 114.063,226.400 113.719 C 227.850 113.070,229.758 112.254,230.800 111.837 C 238.743 108.660,248.727 98.377,252.973 89.000 C 253.372 88.120,253.946 86.890,254.249 86.268 C 254.552 85.645,254.800 84.862,254.800 84.528 C 254.800 84.194,255.051 83.354,255.357 82.660 C 256.266 80.603,257.319 74.053,257.065 72.040 C 256.937 71.028,256.642 68.670,256.410 66.800 C 256.177 64.930,255.697 62.680,255.343 61.800 C 253.553 57.351,251.924 54.000,251.552 54.000 C 251.406 54.000,251.183 53.586,251.056 53.080 C 250.733 51.795,244.123 45.200,243.158 45.200 C 242.999 45.200,241.913 44.570,240.744 43.800 C 239.575 43.030,238.209 42.400,237.709 42.400 C 237.209 42.400,236.800 42.223,236.800 42.008 C 236.800 41.792,236.305 41.509,235.700 41.379 C 235.095 41.248,233.970 40.904,233.200 40.614 C 229.222 39.113,227.741 39.067,181.400 39.020 C 156.540 38.995,130.684 39.070,123.941 39.187 M228.200 40.189 C 252.056 43.994,262.626 66.212,251.707 89.600 C 246.821 100.066,237.677 108.482,226.600 112.709 C 220.847 114.904,218.934 115.392,212.000 116.429 C 210.570 116.643,209.082 116.917,208.694 117.038 C 207.883 117.290,208.148 118.000,209.054 118.000 C 211.868 118.000,221.547 123.667,225.511 127.636 C 237.760 139.899,240.000 162.536,230.376 176.800 C 225.235 184.420,213.753 191.989,202.386 195.250 C 197.635 196.613,42.400 197.523,42.400 196.188 C 42.400 195.550,43.649 192.436,45.685 188.000 C 46.341 186.570,47.149 184.770,47.479 184.000 C 48.286 182.120,48.970 180.559,49.933 178.400 C 50.374 177.410,50.839 176.330,50.965 176.000 C 51.092 175.670,51.350 175.130,51.539 174.800 C 51.728 174.470,52.149 173.570,52.474 172.800 C 52.798 172.030,53.349 170.770,53.697 170.000 C 54.642 167.910,56.046 164.757,56.636 163.400 C 56.923 162.740,57.600 161.210,58.141 160.000 C 58.682 158.790,59.603 156.720,60.187 155.400 C 60.772 154.080,61.500 152.460,61.804 151.800 C 63.456 148.220,64.800 145.176,64.800 145.014 C 64.800 144.913,65.440 143.429,66.222 141.715 C 67.005 140.002,67.874 138.060,68.154 137.400 C 68.435 136.740,68.949 135.570,69.297 134.800 C 70.024 133.191,71.184 130.595,72.334 128.000 C 73.517 125.333,75.557 120.796,76.291 119.200 C 76.646 118.430,77.164 117.260,77.443 116.600 C 78.431 114.262,81.275 107.868,82.602 105.000 C 83.384 103.312,84.884 99.915,86.400 96.400 C 87.784 93.193,89.160 90.088,91.810 84.200 C 92.107 83.540,92.705 82.190,93.139 81.200 C 93.573 80.210,94.378 78.410,94.927 77.200 C 95.476 75.990,96.314 74.100,96.787 73.000 C 97.261 71.900,97.896 70.460,98.199 69.800 C 98.502 69.140,99.105 67.790,99.539 66.800 C 99.973 65.810,100.778 64.010,101.327 62.800 C 101.876 61.590,102.714 59.700,103.187 58.600 C 104.467 55.629,105.897 52.404,107.533 48.800 C 108.183 47.370,109.200 45.030,109.794 43.600 C 110.388 42.170,111.046 40.820,111.257 40.600 C 112.089 39.731,222.887 39.341,228.200 40.189 M159.221 81.175 L 151.841 81.400 150.467 84.473 C 148.359 89.188,146.881 88.800,166.932 88.800 C 176.478 88.800,185.145 88.683,186.191 88.539 C 190.433 87.958,192.923 83.172,189.800 81.603 C 188.477 80.938,173.746 80.732,159.221 81.175 M189.950 82.361 C 191.385 83.270,190.225 85.952,187.845 87.227 C 186.190 88.114,150.000 88.465,150.000 87.595 C 150.000 87.372,150.174 86.877,150.386 86.495 C 150.598 86.113,151.143 84.945,151.596 83.900 L 152.420 82.000 170.910 82.006 C 181.079 82.009,189.648 82.169,189.950 82.361 M302.181 124.223 C 299.291 125.702,297.200 127.391,297.200 128.246 C 297.200 128.519,296.885 129.057,296.500 129.442 C 295.491 130.450,295.248 137.812,296.164 139.648 C 297.152 141.629,296.529 143.600,294.915 143.600 C 293.155 143.600,284.000 151.590,284.000 153.126 C 284.000 153.560,283.730 154.018,283.400 154.145 C 283.070 154.271,282.794 154.786,282.787 155.287 C 282.780 155.789,282.510 156.549,282.187 156.976 C 281.365 158.064,281.384 165.081,282.213 166.176 C 282.536 166.604,282.800 167.275,282.800 167.668 C 282.800 168.674,288.123 173.917,289.479 174.247 C 290.095 174.397,290.955 174.763,291.389 175.060 C 292.490 175.814,302.582 175.813,304.027 175.059 C 304.591 174.765,305.524 174.405,306.099 174.261 C 307.446 173.923,312.000 171.216,312.000 170.753 C 312.000 170.151,313.612 170.365,313.855 171.000 C 313.982 171.330,314.235 171.600,314.418 171.600 C 314.601 171.600,315.343 172.141,316.067 172.802 C 316.791 173.463,317.747 174.117,318.191 174.256 C 318.636 174.394,319.128 174.709,319.285 174.954 C 320.244 176.456,330.315 175.355,331.380 173.632 C 331.506 173.428,332.147 173.143,332.805 172.999 C 333.850 172.769,334.000 172.563,334.000 171.356 C 334.000 169.659,333.274 169.305,331.554 170.163 C 329.969 170.954,327.652 170.965,326.624 170.187 C 326.196 169.864,325.592 169.600,325.281 169.600 C 324.672 169.600,321.847 167.507,320.693 166.200 C 319.118 164.416,319.125 164.169,320.807 162.487 C 321.683 161.611,322.400 160.794,322.400 160.672 C 322.400 160.549,322.920 159.881,323.554 159.185 C 324.189 158.490,325.191 156.994,325.780 155.861 C 326.369 154.727,327.019 153.485,327.225 153.100 C 327.431 152.715,327.754 152.085,327.942 151.700 C 328.224 151.125,328.918 150.981,331.842 150.894 C 335.659 150.779,336.800 150.179,336.800 148.287 C 336.800 147.834,337.084 147.149,337.432 146.765 C 337.916 146.229,337.964 145.881,337.638 145.271 C 337.183 144.420,320.378 144.401,318.733 145.249 C 317.172 146.053,317.380 149.600,318.987 149.600 C 320.841 149.600,322.428 154.015,321.000 155.200 C 320.670 155.474,320.400 156.047,320.400 156.473 C 320.400 157.406,317.142 162.003,316.484 161.998 C 316.169 161.996,312.920 157.380,312.038 155.682 C 311.729 155.087,311.369 154.510,311.238 154.400 C 310.861 154.083,306.944 145.934,306.506 144.553 C 306.122 143.347,306.163 143.282,307.755 142.600 C 316.402 138.890,319.709 135.777,319.656 131.393 C 319.632 129.323,318.485 126.601,317.338 125.891 C 317.064 125.721,316.606 125.361,316.320 125.091 C 313.390 122.323,306.698 121.912,302.181 124.223 M313.800 124.235 C 319.301 126.799,320.600 131.948,316.807 136.157 C 314.834 138.347,309.440 141.600,307.783 141.600 C 307.487 141.600,306.768 142.010,306.185 142.511 L 305.125 143.423 306.563 146.493 C 307.353 148.181,308.000 149.656,308.000 149.770 C 308.000 149.884,308.810 151.347,309.800 153.022 C 310.790 154.696,311.600 156.136,311.600 156.220 C 311.600 156.558,314.915 161.181,315.606 161.805 C 316.838 162.920,318.483 161.579,320.443 157.861 C 320.577 157.608,320.982 156.832,321.343 156.138 C 322.723 153.487,321.682 149.447,319.535 149.127 C 318.232 148.932,317.884 147.455,318.851 146.226 L 319.658 145.200 328.205 145.200 C 337.405 145.200,337.514 145.227,336.535 147.251 C 335.318 149.768,334.930 149.997,331.838 150.028 C 328.013 150.066,327.873 150.154,326.071 153.659 C 324.395 156.920,322.549 159.521,319.904 162.346 C 317.959 164.424,318.069 164.777,321.579 167.756 C 325.542 171.119,328.023 171.763,332.500 170.594 C 334.429 170.090,333.967 171.801,331.900 172.815 C 324.648 176.374,319.570 175.655,314.284 170.322 C 313.312 169.340,312.995 169.394,310.641 170.944 C 293.465 182.248,274.615 168.807,284.962 152.633 C 286.819 149.730,293.765 144.000,295.427 144.000 C 295.665 144.000,296.271 143.564,296.772 143.030 L 297.683 142.060 296.842 139.628 C 293.192 129.083,303.712 119.534,313.800 124.235 M306.808 125.646 C 303.161 127.102,301.922 131.609,303.524 137.596 C 304.470 141.134,306.710 140.914,310.468 136.916 C 315.539 131.523,312.848 123.237,306.808 125.646 M310.231 126.234 C 314.401 127.354,312.500 135.254,307.265 138.559 C 304.736 140.156,304.583 140.043,304.041 136.167 C 303.031 128.945,305.510 124.966,310.231 126.234 M126.887 138.100 C 126.660 138.375,125.998 139.680,125.415 141.000 C 124.832 142.320,124.161 143.793,123.924 144.273 C 122.860 146.431,122.647 146.402,139.687 146.370 C 163.195 146.326,175.090 145.907,176.693 145.065 C 179.169 143.766,180.041 140.130,178.274 138.470 L 177.348 137.600 152.323 137.600 C 132.789 137.600,127.208 137.710,126.887 138.100 M177.077 138.581 C 179.159 139.349,178.709 142.873,176.333 144.400 C 175.039 145.232,124.792 145.536,124.814 144.711 C 124.821 144.430,125.175 143.480,125.600 142.600 C 126.025 141.720,126.379 140.755,126.386 140.456 C 126.394 140.157,126.771 139.527,127.224 139.056 L 128.048 138.200 152.324 138.303 C 165.676 138.359,176.815 138.485,177.077 138.581 M295.736 146.347 C 287.324 152.441,286.825 165.119,294.800 170.179 C 299.115 172.917,304.915 172.485,310.100 169.039 C 311.435 168.152,311.482 167.455,310.300 166.032 C 309.805 165.436,309.040 164.445,308.600 163.830 C 308.160 163.215,307.608 162.506,307.373 162.256 C 306.166 160.966,301.709 152.667,299.450 147.500 C 298.302 144.875,297.929 144.759,295.736 146.347 M298.400 146.751 C 298.400 147.164,298.670 147.726,299.000 148.000 C 299.330 148.274,299.600 148.823,299.600 149.220 C 299.600 149.618,299.870 150.213,300.200 150.543 C 300.530 150.873,300.800 151.494,300.800 151.922 C 300.800 152.351,301.058 152.917,301.374 153.179 C 301.690 153.441,302.061 154.168,302.199 154.794 C 302.336 155.421,302.708 156.033,303.024 156.154 C 303.341 156.276,303.600 156.719,303.600 157.138 C 303.600 157.558,303.870 158.126,304.200 158.400 C 304.530 158.674,304.800 159.073,304.800 159.286 C 304.800 159.499,305.115 160.086,305.500 160.591 C 305.885 161.095,306.470 161.906,306.800 162.393 C 307.130 162.880,308.075 164.194,308.900 165.312 C 310.965 168.111,311.003 168.003,307.200 170.153 C 305.228 171.267,297.317 171.374,296.243 170.300 C 295.858 169.915,295.329 169.600,295.067 169.600 C 294.626 169.600,293.152 168.331,292.186 167.119 C 290.020 164.401,289.033 156.312,290.613 154.224 C 290.936 153.796,291.200 153.204,291.200 152.907 C 291.200 151.340,296.310 146.088,297.900 146.021 C 298.175 146.009,298.400 146.338,298.400 146.751 M177.481 225.940 C 176.767 226.222,176.027 227.282,175.207 229.200 C 174.619 230.573,173.587 232.787,172.939 234.062 C 172.643 234.646,172.400 235.479,172.400 235.913 C 172.400 236.347,172.130 236.926,171.800 237.200 C 171.470 237.474,171.200 238.023,171.200 238.420 C 171.200 238.818,170.930 239.413,170.600 239.743 C 170.270 240.073,170.000 240.471,170.000 240.628 C 170.000 240.923,168.709 243.813,167.750 245.662 C 167.448 246.246,167.200 247.171,167.200 247.719 C 167.200 248.266,166.930 248.818,166.600 248.945 C 166.270 249.071,165.999 249.496,165.997 249.887 C 165.996 250.279,165.637 251.140,165.200 251.800 C 164.763 252.460,164.404 253.315,164.403 253.700 C 164.401 254.085,164.228 254.400,164.018 254.400 C 163.808 254.400,163.519 255.024,163.376 255.786 C 163.233 256.548,162.865 257.380,162.558 257.635 C 162.251 257.890,162.000 258.597,162.000 259.206 C 162.000 259.822,161.734 260.417,161.400 260.545 C 161.070 260.671,160.800 261.068,160.800 261.426 C 160.800 261.784,160.542 262.554,160.227 263.138 C 159.913 263.722,159.260 265.100,158.778 266.200 C 158.295 267.300,157.653 268.678,157.350 269.262 C 157.048 269.846,156.800 270.679,156.800 271.113 C 156.800 271.547,156.530 272.126,156.200 272.400 C 155.870 272.674,155.600 273.214,155.600 273.600 C 155.600 273.986,155.330 274.526,155.000 274.800 C 154.670 275.074,154.400 275.481,154.400 275.705 C 154.400 276.103,153.247 278.745,152.150 280.862 C 151.848 281.446,151.600 282.279,151.600 282.713 C 151.600 283.147,151.330 283.726,151.000 284.000 C 150.670 284.274,150.400 284.823,150.400 285.220 C 150.400 285.618,150.130 286.213,149.800 286.543 C 149.470 286.873,149.194 287.291,149.186 287.471 C 149.179 287.652,148.825 288.520,148.400 289.400 C 147.975 290.280,147.621 291.293,147.614 291.651 C 147.606 292.009,147.330 292.526,147.000 292.800 C 146.670 293.074,146.400 293.704,146.400 294.200 C 146.400 294.696,146.130 295.326,145.800 295.600 C 145.470 295.874,145.200 296.504,145.200 297.000 C 145.200 297.496,144.942 298.117,144.626 298.379 C 144.310 298.641,143.936 299.383,143.794 300.028 C 143.652 300.672,143.379 301.200,143.186 301.200 C 142.994 301.200,142.719 301.824,142.576 302.586 C 142.433 303.348,142.065 304.180,141.758 304.435 C 141.451 304.690,141.200 305.397,141.200 306.006 C 141.200 306.622,140.934 307.217,140.600 307.345 C 140.270 307.471,140.000 308.009,140.000 308.538 C 140.000 309.068,139.730 309.726,139.400 310.000 C 139.070 310.274,138.800 310.681,138.800 310.905 C 138.800 311.303,137.647 313.945,136.550 316.062 C 136.248 316.646,136.000 317.506,136.000 317.974 C 136.000 318.442,135.730 318.929,135.400 319.055 C 135.070 319.182,134.800 319.694,134.800 320.194 C 134.800 320.693,134.530 321.326,134.200 321.600 C 133.870 321.874,133.600 322.281,133.600 322.505 C 133.600 322.903,132.447 325.545,131.350 327.662 C 131.048 328.246,130.800 329.079,130.800 329.513 C 130.800 329.947,130.530 330.526,130.200 330.800 C 129.870 331.074,129.600 331.614,129.600 332.000 C 129.600 332.386,129.330 332.926,129.000 333.200 C 128.670 333.474,128.400 333.947,128.400 334.250 C 128.400 334.554,128.040 335.475,127.600 336.296 C 127.160 337.116,126.800 338.084,126.800 338.445 C 126.800 338.806,126.530 339.326,126.200 339.600 C 125.870 339.874,125.600 340.504,125.600 341.000 C 125.600 341.496,125.330 342.126,125.000 342.400 C 124.670 342.674,124.400 343.304,124.400 343.800 C 124.400 344.296,124.130 344.926,123.800 345.200 C 123.470 345.474,123.200 345.904,123.200 346.155 C 123.200 346.406,122.840 347.284,122.400 348.104 C 121.960 348.925,121.600 349.846,121.600 350.150 C 121.600 350.453,121.330 350.926,121.000 351.200 C 120.670 351.474,120.400 352.197,120.400 352.806 C 120.400 353.422,120.134 354.017,119.800 354.145 C 119.470 354.271,119.200 354.809,119.200 355.338 C 119.200 355.868,118.930 356.526,118.600 356.800 C 118.270 357.074,118.000 357.504,118.000 357.755 C 118.000 358.006,117.640 358.884,117.200 359.704 C 116.760 360.525,116.400 361.481,116.400 361.827 C 116.400 362.174,116.130 362.727,115.800 363.057 C 115.470 363.387,115.200 364.075,115.200 364.586 C 115.200 365.097,114.930 365.618,114.600 365.745 C 114.270 365.871,114.000 366.409,114.000 366.938 C 114.000 367.468,113.730 368.126,113.400 368.400 C 113.070 368.674,112.799 369.191,112.797 369.549 C 112.796 369.907,112.437 370.740,112.000 371.400 C 111.563 372.060,111.204 372.983,111.203 373.451 C 111.201 373.919,110.930 374.526,110.600 374.800 C 110.270 375.074,110.000 375.704,110.000 376.200 C 110.000 376.696,109.730 377.326,109.400 377.600 C 109.070 377.874,108.800 378.414,108.800 378.800 C 108.800 379.186,108.552 379.708,108.248 379.960 C 107.485 380.593,107.122 382.707,107.618 383.633 C 108.633 385.531,266.992 384.368,268.912 382.448 C 269.158 382.202,269.784 382.000,270.302 382.000 C 271.119 382.000,272.687 381.426,275.800 379.986 C 276.240 379.783,277.050 379.430,277.600 379.202 C 278.150 378.975,279.140 378.431,279.800 377.995 C 280.460 377.559,281.495 377.004,282.100 376.762 C 282.705 376.520,283.200 376.159,283.200 375.961 C 283.200 375.762,283.372 375.600,283.582 375.600 C 284.006 375.600,286.413 374.029,287.326 373.158 C 287.647 372.851,288.859 371.790,290.020 370.800 C 291.181 369.810,292.596 368.521,293.165 367.936 C 295.085 365.963,296.400 364.473,296.400 364.271 C 296.400 364.160,297.030 363.113,297.800 361.944 C 298.570 360.775,299.200 359.499,299.200 359.109 C 299.200 358.719,299.372 358.400,299.582 358.400 C 299.792 358.400,300.087 357.742,300.238 356.937 C 300.389 356.133,300.756 355.008,301.054 354.437 C 301.352 353.867,301.598 352.950,301.602 352.400 C 301.606 351.850,301.875 350.410,302.200 349.200 C 302.994 346.240,302.992 338.061,302.196 335.436 C 301.868 334.356,301.599 332.916,301.598 332.236 C 301.596 331.556,301.326 330.484,300.998 329.854 C 300.669 329.224,300.400 328.391,300.400 328.003 C 300.400 327.615,300.130 327.074,299.800 326.800 C 299.470 326.526,299.200 326.053,299.200 325.749 C 299.200 324.887,296.345 319.718,295.141 318.400 C 294.546 317.748,293.956 316.896,293.830 316.507 C 293.281 314.806,287.200 309.534,283.787 307.800 C 282.921 307.360,281.972 306.775,281.678 306.500 C 281.383 306.225,280.830 306.000,280.448 306.000 C 280.066 306.000,279.404 305.736,278.976 305.413 C 278.549 305.090,277.806 304.820,277.324 304.813 C 275.732 304.790,275.879 304.000,277.476 303.990 C 278.314 303.985,279.720 303.791,280.600 303.559 C 281.480 303.327,283.154 302.986,284.321 302.800 C 285.487 302.615,286.657 302.293,286.921 302.084 C 287.184 301.875,288.067 301.584,288.883 301.437 C 289.699 301.290,290.869 300.908,291.483 300.588 C 292.097 300.267,292.777 300.004,292.993 300.002 C 294.572 299.993,302.695 295.056,306.162 292.000 C 310.610 288.079,316.000 281.579,316.000 280.135 C 316.000 279.841,316.162 279.600,316.361 279.600 C 316.559 279.600,316.917 279.105,317.155 278.500 C 317.393 277.895,317.750 277.130,317.947 276.800 C 318.618 275.677,320.000 272.514,320.000 272.102 C 320.000 271.876,320.269 271.176,320.598 270.546 C 320.926 269.916,321.196 269.017,321.198 268.549 C 321.199 268.081,321.470 267.051,321.800 266.262 C 322.515 264.550,322.624 255.525,321.960 253.000 C 321.729 252.120,321.396 250.598,321.221 249.617 C 321.045 248.636,320.699 247.766,320.451 247.684 C 320.203 247.601,319.997 247.143,319.993 246.667 C 319.990 246.190,319.457 244.810,318.809 243.600 C 318.162 242.390,317.449 240.995,317.226 240.500 C 317.003 240.005,316.635 239.600,316.410 239.600 C 316.184 239.600,316.000 239.350,316.000 239.045 C 316.000 238.315,311.428 233.715,309.249 232.252 C 307.116 230.820,304.091 229.200,303.550 229.200 C 303.326 229.200,302.873 228.930,302.543 228.600 C 302.213 228.270,301.461 227.994,300.871 227.987 C 300.282 227.980,299.451 227.710,299.024 227.387 C 298.596 227.064,297.556 226.800,296.711 226.800 C 295.866 226.800,294.528 226.530,293.738 226.200 C 292.200 225.557,179.091 225.304,177.481 225.940 M292.800 226.615 C 298.415 227.631,300.623 228.341,305.200 230.600 C 332.659 244.157,323.840 288.031,291.313 299.693 C 285.364 301.825,284.829 301.969,279.552 302.840 C 273.135 303.900,272.473 304.324,275.900 305.179 C 280.096 306.227,286.806 310.201,290.830 314.022 C 304.899 327.382,305.602 354.985,292.199 367.800 C 284.507 375.155,276.818 379.563,267.259 382.100 C 264.256 382.897,262.764 382.918,186.400 383.235 C 99.610 383.595,106.841 383.816,108.393 380.848 C 109.051 379.591,110.006 377.518,112.196 372.600 C 112.489 371.940,113.131 370.500,113.622 369.400 C 114.112 368.300,114.749 366.860,115.036 366.200 C 115.323 365.540,116.107 363.785,116.779 362.299 C 117.451 360.813,118.000 359.515,118.000 359.414 C 118.000 359.313,118.640 357.829,119.422 356.115 C 120.205 354.402,121.074 352.460,121.354 351.800 C 121.893 350.532,122.256 349.726,124.593 344.600 C 125.939 341.647,126.322 340.789,127.805 337.400 C 129.161 334.300,130.357 331.632,133.006 325.800 C 133.306 325.140,133.933 323.700,134.400 322.600 C 134.867 321.500,135.498 320.060,135.803 319.400 C 137.412 315.920,138.800 312.777,138.800 312.614 C 138.800 312.513,139.440 311.029,140.222 309.315 C 141.005 307.602,141.874 305.660,142.154 305.000 C 142.435 304.340,142.949 303.170,143.297 302.400 C 144.642 299.425,145.545 297.376,145.765 296.800 C 145.892 296.470,146.150 295.930,146.339 295.600 C 146.528 295.270,146.949 294.370,147.274 293.600 C 147.598 292.830,148.149 291.570,148.497 290.800 C 149.442 288.710,150.846 285.557,151.436 284.200 C 151.723 283.540,152.400 282.010,152.941 280.800 C 153.482 279.590,154.403 277.520,154.987 276.200 C 155.572 274.880,156.300 273.260,156.604 272.600 C 158.256 269.020,159.600 265.976,159.600 265.814 C 159.600 265.713,160.240 264.229,161.022 262.515 C 162.367 259.569,162.980 258.198,164.205 255.400 C 164.493 254.740,165.091 253.390,165.533 252.400 C 165.974 251.410,166.439 250.330,166.565 250.000 C 166.692 249.670,166.950 249.130,167.139 248.800 C 167.328 248.470,167.774 247.522,168.131 246.694 C 168.772 245.202,169.095 244.472,170.822 240.600 C 171.312 239.500,171.947 238.060,172.232 237.400 C 175.293 230.314,176.764 227.270,177.295 226.926 C 177.769 226.620,215.998 226.259,267.000 226.079 C 285.673 226.013,289.966 226.102,292.800 226.615 M217.563 268.244 C 217.269 268.599,216.447 270.227,215.736 271.862 L 214.442 274.836 215.521 275.257 C 217.956 276.206,252.793 275.266,254.431 274.206 C 257.347 272.319,257.687 269.591,255.166 268.301 C 253.161 267.274,218.412 267.222,217.563 268.244 M255.496 269.279 C 256.132 269.807,255.923 271.729,255.124 272.691 C 253.416 274.750,252.903 274.800,233.608 274.800 L 215.585 274.800 215.852 273.700 C 215.999 273.095,216.363 272.245,216.660 271.811 C 216.957 271.377,217.200 270.612,217.200 270.111 C 217.200 269.610,217.245 269.161,217.300 269.113 C 218.017 268.486,254.733 268.647,255.496 269.279 M191.926 325.700 C 190.117 329.282,189.227 331.605,189.444 332.172 C 189.726 332.904,235.362 333.129,239.696 332.419 C 243.347 331.821,245.350 329.447,244.629 326.574 C 244.057 324.295,245.352 324.400,217.862 324.400 L 192.582 324.400 191.926 325.700 M243.496 325.864 C 244.814 327.666,243.962 329.825,241.406 331.165 C 239.839 331.986,239.387 332.000,214.906 332.000 C 188.896 332.000,188.689 331.986,190.600 330.400 C 190.930 330.126,191.198 329.699,191.197 329.451 C 191.190 328.537,192.996 325.221,193.560 325.112 C 196.497 324.547,243.046 325.248,243.496 325.864 " stroke="none" fill="#65563a" fill-rule="evenodd"></path><path id="path4" d="M247.800 18.685 C 168.612 18.886,58.508 19.632,57.000 19.977 C 53.711 20.731,51.765 21.288,50.600 21.812 C 47.111 23.378,44.000 24.979,43.019 25.714 C 42.789 25.887,42.041 26.427,41.359 26.914 C 38.028 29.291,31.200 37.176,31.200 38.645 C 31.200 38.950,31.020 39.200,30.800 39.200 C 30.580 39.200,30.400 39.405,30.400 39.656 C 30.400 39.907,30.060 40.852,29.644 41.756 C 25.952 49.780,26.243 38.326,26.576 162.268 C 27.102 358.200,27.293 386.350,28.103 388.149 C 28.486 389.001,28.800 390.013,28.800 390.398 C 28.800 396.535,40.471 410.349,48.400 413.596 C 48.950 413.821,49.850 414.242,50.400 414.532 C 51.749 415.243,55.108 416.213,59.089 417.041 C 64.796 418.229,343.959 417.017,348.000 415.786 C 359.475 412.293,367.551 406.362,371.992 398.168 C 372.459 397.306,373.006 396.330,373.207 396.000 C 374.580 393.746,376.117 388.773,376.995 383.739 C 377.669 379.882,377.669 378.373,377.000 277.800 C 376.896 262.180,376.703 205.210,376.572 151.200 C 376.418 87.535,376.191 52.226,375.928 50.800 C 375.038 45.975,374.746 44.788,374.187 43.717 C 373.867 43.102,373.604 42.403,373.602 42.163 C 373.601 41.923,373.153 40.933,372.607 39.963 C 372.060 38.993,371.451 37.840,371.252 37.400 C 369.828 34.249,363.976 27.940,360.006 25.273 C 357.347 23.488,352.046 20.800,351.184 20.800 C 350.841 20.800,350.389 20.635,350.180 20.432 C 349.971 20.230,348.720 19.853,347.400 19.594 C 346.080 19.335,344.280 18.968,343.400 18.779 C 342.520 18.590,328.570 18.471,312.400 18.515 C 296.230 18.559,267.160 18.636,247.800 18.685 M345.800 20.743 C 350.042 21.605,355.377 23.873,359.000 26.356 C 363.462 29.414,369.145 35.852,371.043 40.000 C 372.863 43.976,373.407 45.662,374.173 49.697 C 374.818 53.098,375.304 159.673,375.369 312.000 L 375.400 385.800 374.450 388.800 C 371.988 396.574,367.747 402.825,361.795 407.453 C 358.815 409.770,353.525 412.800,352.458 412.800 C 352.200 412.800,351.677 412.974,351.295 413.187 C 348.600 414.689,345.574 414.964,330.600 415.070 C 255.370 415.603,62.572 415.979,60.000 415.598 C 44.355 413.282,32.946 402.450,29.456 386.600 C 28.476 382.147,27.588 54.975,28.543 50.079 C 31.193 36.497,41.367 25.723,55.163 21.892 C 58.823 20.875,56.655 20.901,174.800 20.440 C 284.324 20.012,342.709 20.115,345.800 20.743 M256.161 64.900 C 256.307 66.275,256.630 68.787,256.879 70.481 C 257.364 73.778,256.606 79.860,255.360 82.660 C 255.052 83.354,254.800 84.194,254.800 84.528 C 254.800 84.862,254.552 85.645,254.249 86.268 C 253.946 86.890,253.372 88.120,252.973 89.000 C 248.726 98.379,238.745 108.660,230.800 111.837 C 230.470 111.969,229.570 112.354,228.800 112.693 C 225.570 114.112,224.952 114.357,224.000 114.598 C 223.450 114.737,222.640 115.013,222.200 115.211 C 221.760 115.410,220.500 115.746,219.400 115.959 C 218.300 116.172,216.680 116.534,215.800 116.763 C 214.920 116.993,213.210 117.190,212.000 117.202 L 209.800 117.223 212.400 118.233 C 213.830 118.789,215.270 119.417,215.600 119.628 C 215.930 119.839,216.695 120.207,217.300 120.445 C 217.905 120.683,218.400 121.041,218.400 121.239 C 218.400 121.438,218.582 121.600,218.804 121.600 C 219.506 121.600,223.324 124.448,225.322 126.462 C 227.436 128.593,227.884 128.697,230.925 127.761 C 260.545 118.647,274.575 86.122,258.215 64.496 C 256.159 61.778,255.838 61.842,256.161 64.900 M151.596 83.900 C 151.143 84.945,150.598 86.113,150.386 86.495 C 150.174 86.877,150.000 87.372,150.000 87.595 C 150.000 88.465,186.190 88.114,187.845 87.227 C 190.225 85.952,191.385 83.270,189.950 82.361 C 189.648 82.169,181.079 82.009,170.910 82.006 L 152.420 82.000 151.596 83.900 M306.967 126.388 C 304.269 127.479,303.286 130.767,304.041 136.167 C 304.583 140.043,304.736 140.156,307.265 138.559 C 314.282 134.129,314.023 123.533,306.967 126.388 M319.127 134.302 C 317.218 137.719,314.483 139.713,307.736 142.608 C 306.204 143.265,306.107 143.396,306.501 144.261 C 306.955 145.259,307.578 145.423,308.705 144.842 C 309.087 144.645,310.797 143.824,312.506 143.018 C 317.610 140.607,320.852 136.561,320.336 133.249 C 320.223 132.531,320.015 132.712,319.127 134.302 M127.224 139.056 C 126.771 139.527,126.394 140.157,126.386 140.456 C 126.379 140.755,126.025 141.720,125.600 142.600 C 125.175 143.480,124.821 144.430,124.814 144.711 C 124.792 145.536,175.039 145.232,176.333 144.400 C 178.709 142.873,179.159 139.349,177.077 138.581 C 176.815 138.485,165.676 138.359,152.324 138.303 L 128.048 138.200 127.224 139.056 M235.200 142.153 C 235.200 142.493,235.515 143.633,235.900 144.686 C 236.761 147.040,236.950 163.958,236.134 165.639 C 235.878 166.168,235.486 167.320,235.263 168.200 C 234.668 170.544,233.800 172.760,233.267 173.293 C 233.010 173.550,232.800 174.090,232.800 174.493 C 232.800 174.895,232.530 175.329,232.200 175.455 C 231.870 175.582,231.600 175.900,231.600 176.161 C 231.600 179.055,219.537 188.907,211.200 192.821 C 205.255 195.613,203.993 195.958,195.200 197.194 C 193.711 197.403,160.714 197.568,117.967 197.579 C 76.918 197.591,43.213 197.720,43.066 197.868 C 42.919 198.015,43.046 198.420,43.348 198.768 C 43.650 199.115,44.485 200.480,45.203 201.800 C 47.727 206.439,49.736 209.803,50.166 210.109 C 50.974 210.685,201.656 209.990,206.441 209.388 C 210.287 208.904,213.655 208.111,215.800 207.182 C 216.240 206.992,217.743 206.368,219.139 205.796 C 241.307 196.722,251.072 174.223,242.242 152.565 C 239.936 146.909,235.200 139.906,235.200 142.153 M296.411 146.721 C 294.228 148.221,291.200 151.815,291.200 152.907 C 291.200 153.204,290.936 153.796,290.613 154.224 C 290.203 154.765,290.025 156.030,290.025 158.400 C 290.024 162.030,290.524 162.101,290.924 158.527 C 291.316 155.023,294.237 150.998,297.478 149.498 C 298.552 149.001,298.779 148.470,298.512 147.075 C 298.277 145.842,297.806 145.763,296.411 146.721 M336.327 149.587 C 335.668 150.747,335.584 150.771,331.970 150.885 C 328.930 150.980,328.225 151.123,327.942 151.700 C 327.754 152.085,327.431 152.715,327.225 153.100 C 327.019 153.485,326.369 154.727,325.780 155.861 C 325.191 156.994,324.189 158.490,323.554 159.185 C 322.920 159.881,322.400 160.549,322.400 160.672 C 322.400 160.794,321.683 161.611,320.807 162.487 C 319.214 164.080,319.083 165.600,320.539 165.600 C 321.433 165.600,325.336 160.493,327.200 156.885 L 329.000 153.400 332.461 153.192 C 336.146 152.971,337.221 152.356,337.834 150.123 C 338.347 148.256,337.297 147.883,336.327 149.587 M319.660 151.180 C 319.832 151.696,320.381 151.788,320.430 151.310 C 320.447 151.151,320.244 150.948,319.980 150.860 C 319.716 150.772,319.572 150.916,319.660 151.180 M312.000 170.753 C 312.000 171.216,307.446 173.923,306.099 174.261 C 305.524 174.405,304.591 174.765,304.027 175.059 C 302.582 175.813,292.490 175.814,291.389 175.060 C 290.349 174.347,288.400 173.886,288.400 174.353 C 288.400 174.926,291.157 176.417,293.752 177.247 C 299.341 179.036,306.734 177.596,312.389 173.617 C 312.945 173.225,313.811 172.777,314.312 172.622 L 315.225 172.338 314.312 171.376 C 313.420 170.435,312.000 170.052,312.000 170.753 M318.644 175.460 C 321.136 177.159,323.268 177.982,325.201 177.991 C 327.353 178.002,332.436 176.621,333.000 175.873 C 333.220 175.581,333.760 175.135,334.200 174.883 C 335.491 174.143,331.327 174.269,329.069 175.039 C 326.776 175.820,319.572 175.718,319.300 174.900 C 319.208 174.625,318.673 174.400,318.111 174.400 C 317.148 174.400,317.180 174.462,318.644 175.460 M321.333 249.800 C 321.435 250.680,321.712 252.120,321.950 253.000 C 322.623 255.496,322.521 264.537,321.800 266.262 C 321.470 267.051,321.199 268.081,321.198 268.549 C 321.196 269.017,320.926 269.916,320.598 270.546 C 320.269 271.176,320.000 271.876,320.000 272.102 C 320.000 272.514,318.618 275.677,317.947 276.800 C 317.750 277.130,317.393 277.895,317.155 278.500 C 316.917 279.105,316.559 279.600,316.361 279.600 C 316.162 279.600,316.000 279.841,316.000 280.135 C 316.000 281.579,310.610 288.079,306.162 292.000 C 302.457 295.266,295.742 299.275,292.400 300.216 C 291.850 300.371,291.220 300.640,291.000 300.813 C 290.780 300.987,289.880 301.258,289.000 301.416 C 288.120 301.575,287.184 301.875,286.921 302.084 C 286.657 302.293,285.487 302.615,284.321 302.800 C 283.154 302.986,281.480 303.327,280.600 303.559 C 279.720 303.791,278.314 303.985,277.476 303.990 C 275.879 304.000,275.732 304.790,277.324 304.813 C 277.806 304.820,278.549 305.090,278.976 305.413 C 279.404 305.736,280.066 306.000,280.448 306.000 C 280.830 306.000,281.383 306.225,281.678 306.500 C 281.972 306.775,282.921 307.360,283.787 307.800 C 285.735 308.789,290.655 312.552,291.988 314.072 C 292.533 314.692,293.219 315.200,293.514 315.200 C 294.205 315.200,297.991 314.054,298.895 313.571 C 299.277 313.367,299.853 313.200,300.176 313.200 C 301.281 313.200,309.010 308.972,312.149 306.651 C 319.123 301.493,323.803 295.420,327.754 286.400 C 333.115 274.163,330.995 259.142,322.587 249.800 L 321.147 248.200 321.333 249.800 M231.800 268.813 C 223.880 268.930,217.355 269.065,217.300 269.113 C 217.245 269.161,217.200 269.610,217.200 270.111 C 217.200 270.612,216.957 271.377,216.660 271.811 C 216.363 272.245,215.999 273.095,215.852 273.700 L 215.585 274.800 233.608 274.800 C 254.555 274.800,255.078 274.709,255.832 270.939 C 256.315 268.524,255.605 268.461,231.800 268.813 M193.560 325.112 C 192.996 325.221,191.190 328.537,191.197 329.451 C 191.198 329.699,190.930 330.126,190.600 330.400 C 188.689 331.986,188.896 332.000,214.906 332.000 C 239.387 332.000,239.839 331.986,241.406 331.165 C 243.962 329.825,244.814 327.666,243.496 325.864 C 243.046 325.248,196.497 324.547,193.560 325.112 M300.400 328.354 C 300.400 328.549,300.669 329.224,300.998 329.854 C 301.326 330.484,301.596 331.556,301.598 332.236 C 301.599 332.916,301.868 334.356,302.196 335.436 C 302.992 338.061,302.994 346.240,302.200 349.200 C 301.875 350.410,301.606 351.850,301.602 352.400 C 301.598 352.950,301.352 353.867,301.054 354.437 C 300.756 355.008,300.389 356.133,300.238 356.937 C 300.087 357.742,299.792 358.400,299.582 358.400 C 299.372 358.400,299.200 358.719,299.200 359.109 C 299.200 359.499,298.570 360.775,297.800 361.944 C 297.030 363.113,296.400 364.160,296.400 364.271 C 296.400 364.473,295.085 365.963,293.165 367.936 C 292.596 368.521,291.181 369.810,290.020 370.800 C 288.859 371.790,287.647 372.851,287.326 373.158 C 286.413 374.029,284.006 375.600,283.582 375.600 C 283.372 375.600,283.200 375.762,283.200 375.961 C 283.200 376.159,282.705 376.520,282.100 376.762 C 281.495 377.004,280.460 377.559,279.800 377.995 C 279.140 378.431,278.150 378.975,277.600 379.202 C 277.050 379.430,276.240 379.783,275.800 379.986 C 272.687 381.426,271.119 382.000,270.302 382.000 C 269.784 382.000,269.158 382.202,268.912 382.448 C 267.458 383.902,246.652 384.294,167.767 384.355 C 135.408 384.380,108.826 384.507,108.696 384.638 C 108.565 384.768,109.047 385.803,109.768 386.938 C 110.488 388.072,111.842 390.440,112.777 392.200 C 113.711 393.960,114.774 395.741,115.138 396.158 C 115.872 396.999,266.642 396.855,273.000 396.008 C 285.522 394.339,300.962 384.207,306.537 374.000 C 311.528 364.863,312.251 350.815,308.265 340.400 C 306.157 334.892,300.400 326.075,300.400 328.354 " stroke="none" fill="#1b1a1a" fill-rule="evenodd"></path></g></svg>